<svg width="1248" height="438" viewBox="0 0 1248 438" fill="none" xmlns="http://www.w3.org/2000/svg">
<path d="M346.908 370.005C349.34 369.596 360.371 369.622 360.372 370.037C360.372 370.922 344.792 381.129 339.142 383.945C334.691 386.165 331.745 387.227 327.769 388.051C318.036 390.066 302.557 388.742 295.835 385.319L294.044 384.407L299.744 383.743C313.539 382.136 322.154 379.852 334.52 374.523C341.847 371.365 344.437 370.42 346.908 370.005Z" fill="black"/>
<path d="M346.908 370.005C349.34 369.596 360.371 369.622 360.372 370.037C360.372 370.922 344.792 381.129 339.142 383.945C334.691 386.165 331.745 387.227 327.769 388.051C318.036 390.066 302.557 388.742 295.835 385.319L294.044 384.407L299.744 383.743C313.539 382.136 322.154 379.852 334.52 374.523C341.847 371.365 344.437 370.42 346.908 370.005Z" fill="url(#paint0_radial_40_2)"/>
<path d="M329.404 356.681C337.747 350.974 349.828 349.037 364.802 351.004C370.924 351.808 376.589 353.351 376.906 354.3C376.999 354.58 375.195 356.662 372.898 358.927L368.72 363.045L363.873 362.03C358.122 360.825 350.716 360.721 345.753 361.775C343.784 362.193 337.76 364.271 332.366 366.393C315.985 372.836 302.092 375.891 286.586 376.457L278.238 376.761L274.199 374.487C271.977 373.236 268.645 371.367 266.795 370.333C264.945 369.3 263.315 368.266 263.172 368.036C262.623 367.145 271.663 366.284 286.219 365.842C309.97 365.12 320.254 362.939 329.404 356.681Z" fill="black"/>
<path d="M329.404 356.681C337.747 350.974 349.828 349.037 364.802 351.004C370.924 351.808 376.589 353.351 376.906 354.3C376.999 354.58 375.195 356.662 372.898 358.927L368.72 363.045L363.873 362.03C358.122 360.825 350.716 360.721 345.753 361.775C343.784 362.193 337.76 364.271 332.366 366.393C315.985 372.836 302.092 375.891 286.586 376.457L278.238 376.761L274.199 374.487C271.977 373.236 268.645 371.367 266.795 370.333C264.945 369.3 263.315 368.266 263.172 368.036C262.623 367.145 271.663 366.284 286.219 365.842C309.97 365.12 320.254 362.939 329.404 356.681Z" fill="url(#paint1_radial_40_2)"/>
<path d="M281.335 344.852C281.557 344.826 281.739 345.081 281.739 345.416C281.739 346.807 277.223 356.212 276.323 356.695C275.786 356.983 274.301 357.22 273.023 357.222C270.946 357.224 266.312 357.947 255.348 359.975L251.847 360.624L247.597 357.902C242.586 354.694 242.355 355.007 251.893 352.046C264.924 347.999 274.71 345.608 281.335 344.852Z" fill="black"/>
<path d="M281.335 344.852C281.557 344.826 281.739 345.081 281.739 345.416C281.739 346.807 277.223 356.212 276.323 356.695C275.786 356.983 274.301 357.22 273.023 357.222C270.946 357.224 266.312 357.947 255.348 359.975L251.847 360.624L247.597 357.902C242.586 354.694 242.355 355.007 251.893 352.046C264.924 347.999 274.71 345.608 281.335 344.852Z" fill="url(#paint2_radial_40_2)"/>
<path d="M315.131 313.458C319.959 312.885 330.325 313.343 334.388 314.31C336.24 314.751 340.845 316.307 344.621 317.769C357.398 322.713 361.048 323.219 383.921 323.219C393.185 323.219 400.75 323.4 400.734 323.623C400.715 323.846 399.556 325.85 398.156 328.076C395.625 332.104 395.6 332.124 392.938 332.393C388.413 332.85 370.577 331.995 366.113 331.107C363.79 330.645 359.791 329.3 357.226 328.118C351.377 325.422 347.593 324.421 340.487 323.694C333.817 323.011 325.468 323.806 321.46 325.505C318.897 326.592 318.51 327.16 319.389 328.552C319.864 329.303 321.223 329.467 337.874 330.765C345.412 331.353 349.592 332.335 355.278 334.855C361.722 337.71 375.769 339.779 385.66 339.329C388.044 339.22 389.994 339.268 389.995 339.435C389.995 339.924 387.77 342.791 385.008 345.862L382.445 348.712L376.635 346.778C367.977 343.896 361.94 342.922 353.101 342.982C341.414 343.061 336.078 344.413 320.786 351.17C314.216 354.074 306.261 355.991 297.588 356.761C293.613 357.113 290.236 357.276 290.082 357.123C289.658 356.699 295.026 345.213 295.839 344.804C296.23 344.608 298.974 344.151 301.936 343.789C304.898 343.426 311.31 342.344 316.186 341.385L325.049 339.642L323.457 338.523C320.028 336.112 312.583 334.582 304.189 334.563C299.917 334.553 299.469 334.457 299.731 333.607C300.947 329.665 303.821 318.535 303.821 317.769C303.821 315.6 306.859 314.442 315.131 313.458Z" fill="black"/>
<path d="M315.131 313.458C319.959 312.885 330.325 313.343 334.388 314.31C336.24 314.751 340.845 316.307 344.621 317.769C357.398 322.713 361.048 323.219 383.921 323.219C393.185 323.219 400.75 323.4 400.734 323.623C400.715 323.846 399.556 325.85 398.156 328.076C395.625 332.104 395.6 332.124 392.938 332.393C388.413 332.85 370.577 331.995 366.113 331.107C363.79 330.645 359.791 329.3 357.226 328.118C351.377 325.422 347.593 324.421 340.487 323.694C333.817 323.011 325.468 323.806 321.46 325.505C318.897 326.592 318.51 327.16 319.389 328.552C319.864 329.303 321.223 329.467 337.874 330.765C345.412 331.353 349.592 332.335 355.278 334.855C361.722 337.71 375.769 339.779 385.66 339.329C388.044 339.22 389.994 339.268 389.995 339.435C389.995 339.924 387.77 342.791 385.008 345.862L382.445 348.712L376.635 346.778C367.977 343.896 361.94 342.922 353.101 342.982C341.414 343.061 336.078 344.413 320.786 351.17C314.216 354.074 306.261 355.991 297.588 356.761C293.613 357.113 290.236 357.276 290.082 357.123C289.658 356.699 295.026 345.213 295.839 344.804C296.23 344.608 298.974 344.151 301.936 343.789C304.898 343.426 311.31 342.344 316.186 341.385L325.049 339.642L323.457 338.523C320.028 336.112 312.583 334.582 304.189 334.563C299.917 334.553 299.469 334.457 299.731 333.607C300.947 329.665 303.821 318.535 303.821 317.769C303.821 315.6 306.859 314.442 315.131 313.458Z" fill="url(#paint3_radial_40_2)"/>
<path d="M287.933 318.901C290.557 318.232 291.972 318.302 291.972 319.101C291.972 320.354 288.973 330.363 287.803 333.012C286.729 335.445 286.618 335.525 283.815 335.874C273.196 337.197 264.045 339.612 250.501 344.664C239.294 348.844 235.002 349.493 231.252 347.576C230.03 346.952 228.899 346.227 228.738 345.966C228.577 345.706 230.027 345.33 231.961 345.131C236.595 344.656 240.741 343.049 244.001 340.466C251.362 334.636 257.38 331.807 266.84 329.729C277.737 327.336 282.535 325.093 285.336 321.086C286.204 319.844 286.198 319.808 285.202 320.222C283.874 320.773 279.638 320.611 278.54 319.967C277.977 319.637 279.12 319.447 282.008 319.393C284.378 319.349 287.044 319.128 287.933 318.901Z" fill="black"/>
<path d="M287.933 318.901C290.557 318.232 291.972 318.302 291.972 319.101C291.972 320.354 288.973 330.363 287.803 333.012C286.729 335.445 286.618 335.525 283.815 335.874C273.196 337.197 264.045 339.612 250.501 344.664C239.294 348.844 235.002 349.493 231.252 347.576C230.03 346.952 228.899 346.227 228.738 345.966C228.577 345.706 230.027 345.33 231.961 345.131C236.595 344.656 240.741 343.049 244.001 340.466C251.362 334.636 257.38 331.807 266.84 329.729C277.737 327.336 282.535 325.093 285.336 321.086C286.204 319.844 286.198 319.808 285.202 320.222C283.874 320.773 279.638 320.611 278.54 319.967C277.977 319.637 279.12 319.447 282.008 319.393C284.378 319.349 287.044 319.128 287.933 318.901Z" fill="url(#paint4_radial_40_2)"/>
<path d="M264.623 317.859C268.701 317.329 285.293 317.139 284.804 317.629C284.614 317.82 282.574 318.271 280.271 318.631C273.685 319.663 260.34 322.631 256.739 323.866C251.889 325.529 246.55 328.338 240.935 332.179C235.245 336.071 232.244 337.138 225.657 337.61C221.09 337.937 212.523 337.031 211.988 336.164C211.848 335.937 212.866 335.582 214.25 335.375C218.71 334.704 223.638 332.921 233.266 328.494C248.226 321.616 255.987 318.984 264.623 317.859Z" fill="black"/>
<path d="M264.623 317.859C268.701 317.329 285.293 317.139 284.804 317.629C284.614 317.82 282.574 318.271 280.271 318.631C273.685 319.663 260.34 322.631 256.739 323.866C251.889 325.529 246.55 328.338 240.935 332.179C235.245 336.071 232.244 337.138 225.657 337.61C221.09 337.937 212.523 337.031 211.988 336.164C211.848 335.937 212.866 335.582 214.25 335.375C218.71 334.704 223.638 332.921 233.266 328.494C248.226 321.616 255.987 318.984 264.623 317.859Z" fill="url(#paint5_radial_40_2)"/>
<path fill-rule="evenodd" clip-rule="evenodd" d="M143.507 74.1834C175.599 54.3733 214.977 44.7083 252.386 47.4607C278.372 49.3723 300.163 55.1149 321.864 65.7698C354.502 81.7957 381.387 106.463 399.139 136.672C402.728 142.778 409.367 156.084 411.435 161.315C420.737 184.835 424.995 206.858 425 231.473C425.006 260.112 419.419 285.746 407.746 310.631L405.17 316.123L402.564 316.515C398.637 317.107 369.52 316.311 363.065 315.435C356.692 314.57 353.638 313.649 348.396 311.008C343.587 308.586 337.699 306.7 331.676 305.653C325.515 304.582 313.41 304.574 308.942 305.638C307.167 306.061 305.663 306.355 305.599 306.291C305.535 306.223 305.825 303.728 306.244 300.743C307.468 291.999 308.124 278.696 308.127 262.567L308.13 247.518L310.419 250.332C314.073 254.826 319.06 261.984 322.159 267.185C325.052 272.042 328.596 279.616 328.596 280.944C328.596 282.107 329.482 281.776 330.904 280.083C332.847 277.77 334.208 271.642 333.787 267.104C333.361 262.505 331.127 254.708 329.24 251.235C328.446 249.773 326.163 247.112 324.167 245.321C322.172 243.531 320.635 241.972 320.75 241.854C320.866 241.737 323.758 242.389 327.175 243.303C330.593 244.217 333.91 244.965 334.548 244.965C336.357 244.965 346.779 248.125 350.861 249.911C352.888 250.798 354.68 251.389 354.843 251.225C355.237 250.831 353.094 244.956 351.117 241.008C348.075 234.932 342.304 230.77 334.048 228.694C329.333 227.508 325.293 227.452 320.517 228.504C318.592 228.928 316.821 229.285 316.581 229.295C315.626 229.337 317.021 228.048 319.903 226.224C321.574 225.168 324.637 222.56 326.711 220.429C330.716 216.314 338.386 210.885 343.689 208.413C345.453 207.591 346.899 206.742 346.902 206.527C346.91 205.983 344.064 204.564 340.492 203.332C331.377 200.189 321.742 202.306 314.996 208.935C311.588 212.282 308.154 217.213 306.292 221.433C305.558 223.096 304.809 224.457 304.628 224.457C304.447 224.457 303.797 223.304 303.183 221.893C301.602 218.259 297.861 213.136 294.726 210.312C291.68 207.569 286.125 204.726 282.136 203.868C277.438 202.859 270.199 203.524 265.609 205.388C261.803 206.934 260.157 208.266 262.052 208.266C263.745 208.267 269.674 211.126 273.56 213.817C275.727 215.317 279.522 218.385 281.994 220.635C284.466 222.886 287.971 225.672 289.783 226.826C291.595 227.981 292.976 229.027 292.852 229.152C292.727 229.276 291.207 228.943 289.472 228.412C287.302 227.747 284.536 227.443 280.61 227.437L274.901 227.427L269.809 229.96C263.502 233.097 259.963 236.48 257.326 241.887C255.109 246.436 253.54 251.441 254.331 251.441C254.629 251.441 256.857 250.622 259.283 249.622C265.398 247.101 270.04 245.789 278.507 244.185C282.506 243.429 286.483 242.651 287.345 242.459C288.754 242.144 288.559 242.454 285.404 245.56C281.496 249.407 280.737 250.67 278.322 257.336C276.834 261.446 276.649 262.599 276.674 267.631C276.698 272.327 276.946 273.983 278.118 277.293C279.631 281.562 280.477 282.906 280.844 281.618C280.964 281.198 281.454 279.506 281.933 277.859C283.749 271.61 298.615 248.257 300.805 248.213C301.485 248.204 300.816 268.209 299.785 278.695C298.876 287.95 297.946 294.745 296.536 302.466L295.653 307.298L282.099 307.321C270.605 307.34 267.479 307.527 261.542 308.547C251.023 310.353 249.19 311.031 231.478 319.67C214.973 327.719 207.394 329.889 196.849 329.58C190.584 329.397 191.328 330.233 188.017 319.653C182.435 301.818 178.064 280.186 175.924 259.806C175.457 255.354 174.839 249.525 174.55 246.854C173.36 235.824 172.743 206.904 173.401 192.934C174.041 179.341 174.416 175.317 175.035 175.381C175.328 175.412 187.885 191.14 189.871 193.964C190.927 195.465 191.283 194.867 191.795 190.727C192.04 188.75 192.342 187.03 192.467 186.905C192.888 186.484 194.488 193.115 194.488 195.276C194.488 198.054 196.592 200.794 197.894 199.711C198.607 199.117 198.864 199.277 199.643 200.807C200.344 202.184 205.502 209.957 206.73 211.489C206.842 211.628 207.15 211.393 207.414 210.965C207.976 210.053 207.918 209.999 209.735 213.124C211.598 216.327 221.04 229.271 221.531 229.296C222.169 229.326 222.995 225.482 223.581 219.757C224.64 209.42 222.716 199.308 217.87 189.736C213.423 180.953 208.638 175.845 198.631 169.199C195.132 166.876 192.378 164.868 192.509 164.736C192.642 164.605 194.655 164.97 196.984 165.549C199.314 166.127 202.371 166.718 203.779 166.859C206.284 167.113 206.337 167.087 206.337 165.604V164.089L208.626 165.361C210.64 166.481 217.848 169.409 218.59 169.409C218.742 169.409 218.736 168.438 218.577 167.251C218.418 166.063 218.389 165.092 218.512 165.092C218.637 165.093 219.903 165.914 221.327 166.917C224.255 168.979 227.013 170.489 227.854 170.489C228.165 170.489 228.419 169.958 228.419 169.309C228.419 168.159 228.458 168.166 229.93 169.578C230.76 170.376 231.821 171.028 232.287 171.028C232.753 171.028 234.013 171.396 235.086 171.845C236.827 172.574 237.036 172.574 237.036 171.845C237.036 170.803 237.52 170.811 238.69 171.873C239.203 172.337 241.645 173.441 244.118 174.326C246.592 175.212 249.913 176.67 251.498 177.566C253.082 178.461 254.485 179.087 254.616 178.958C254.965 178.609 252.926 171.528 251.635 168.602C244.843 153.217 231.807 144.13 214.416 142.657C207.212 142.047 196.178 144.457 190.608 147.855C189.214 148.705 188.212 149.106 188.381 148.746C188.55 148.386 191.592 145.42 195.143 142.155C198.694 138.89 202.651 135.247 203.938 134.06C205.224 132.873 206.835 131.474 207.518 130.951L208.761 129.999L207.549 129.131C206.882 128.653 206.337 128.091 206.337 127.881C206.338 127.671 208.758 126.337 211.716 124.916C216.724 122.509 217.932 121.378 215.493 121.378C213.617 121.378 213.905 120.481 216.188 119.215C217.435 118.523 219.911 116.926 221.692 115.665C225.028 113.302 234.522 108.426 235.785 108.425C237.159 108.425 236.478 107.358 234.44 106.316C226.053 102.029 213.201 101.123 203.375 104.126C195.584 106.507 186.619 112.602 182.083 118.601C178.222 123.707 173.354 133.678 172.099 139.051C171.528 141.498 170.923 143.501 170.757 143.503C170.59 143.504 169.788 141.799 168.975 139.714C166.667 133.793 163.894 129.571 159.215 124.854C147.375 112.918 130.253 110.598 112.488 118.524C110.786 119.284 109.409 120.054 109.427 120.237C109.447 120.419 111.844 121.72 114.755 123.129C119.983 125.658 132.638 133.754 135.02 136.093C135.695 136.756 139.643 139.848 143.791 142.965C151.966 149.106 153.192 150.375 149.782 149.17C143.416 146.919 130.361 146.782 122.943 148.889C115.881 150.894 109.487 154.763 104.524 160.035C100.694 164.102 99.6037 165.687 96.9894 170.994C93.9233 177.215 91.0065 187.838 92.5608 187.123C96.8397 185.155 106.386 179.942 107.629 178.895C109.53 177.292 109.93 177.191 109.93 178.314C109.93 179.463 110.282 179.351 113.09 177.304C116.128 175.089 119.08 173.541 119.487 173.949C119.652 174.114 120.107 173.828 120.497 173.314C120.911 172.767 121.213 172.651 121.223 173.035C121.233 173.397 121.604 173.553 122.048 173.383C122.493 173.211 122.856 173.341 122.856 173.669C122.856 174.772 124.272 174.281 127.369 172.108C129.06 170.92 130.642 169.949 130.885 169.949C131.126 169.949 131.209 170.556 131.067 171.298C130.767 172.87 131.088 172.926 134.163 171.839C135.421 171.395 139.236 170.404 142.642 169.639C146.048 168.873 149.171 168.119 149.58 167.961C149.989 167.804 150.314 167.883 150.302 168.138C150.289 168.392 148.653 169.615 146.667 170.854C136.152 177.416 129.784 185.266 125.347 197.134C120.835 209.202 120.753 220.534 125.076 234.261C125.715 236.289 126.421 237.949 126.644 237.949C126.868 237.948 128.181 235.36 129.563 232.197C130.946 229.034 132.755 225.452 133.585 224.237C134.596 222.756 135.181 221.091 135.359 219.183C135.673 215.835 136.063 215.261 137.077 216.651C137.757 217.584 138.111 217.079 141.206 210.747C144.151 204.722 144.679 203.943 145.266 204.747C145.87 205.575 146.057 205.443 147.055 203.482C147.896 201.829 148.17 200.275 148.17 197.134C148.17 192.88 148.528 192.457 149.564 195.488C149.887 196.431 150.371 197.176 150.641 197.143C151.693 197.014 152.711 193.771 152.992 189.654L153.286 185.343L154.311 187.63C154.874 188.888 155.5 189.917 155.7 189.917C155.902 189.916 156.816 188.871 157.731 187.593C160.231 184.106 165.943 178.335 165.943 179.297C165.943 179.756 165.598 181.788 165.176 183.811C160.883 204.376 160.603 254.868 164.607 286.25C165.872 296.167 170.279 318.353 172.205 324.502C172.485 325.396 172.306 325.478 170.714 325.194C166.122 324.375 152.735 323.241 147.631 323.238C127.935 323.229 105.08 327.685 91.9391 334.094C89.5984 335.237 87.5953 336.171 87.4863 336.171C86.8276 336.171 80.2151 325.075 76.5684 317.85C62.2803 289.543 56.0324 263.141 56.0001 230.933C55.9705 201.313 62.2246 175.149 75.7915 148.14C91.1547 117.554 114.434 92.1288 143.507 74.1834ZM319.6 99.4883C315.736 98.2843 306.907 98.0178 303.087 98.9898C286.138 103.303 275.704 120.049 279.253 137.244C281.664 148.927 291.611 159.136 303.282 161.905C315.935 164.908 329.87 159.141 337.119 147.903C340.47 142.707 341.606 138.845 341.903 131.632C342.132 126.098 342.016 124.977 340.835 121.287C340.106 119.012 338.63 115.573 337.555 113.645C334.189 107.616 326.68 101.696 319.6 99.4883Z" fill="black"/>
<path fill-rule="evenodd" clip-rule="evenodd" d="M143.507 74.1834C175.599 54.3733 214.977 44.7083 252.386 47.4607C278.372 49.3723 300.163 55.1149 321.864 65.7698C354.502 81.7957 381.387 106.463 399.139 136.672C402.728 142.778 409.367 156.084 411.435 161.315C420.737 184.835 424.995 206.858 425 231.473C425.006 260.112 419.419 285.746 407.746 310.631L405.17 316.123L402.564 316.515C398.637 317.107 369.52 316.311 363.065 315.435C356.692 314.57 353.638 313.649 348.396 311.008C343.587 308.586 337.699 306.7 331.676 305.653C325.515 304.582 313.41 304.574 308.942 305.638C307.167 306.061 305.663 306.355 305.599 306.291C305.535 306.223 305.825 303.728 306.244 300.743C307.468 291.999 308.124 278.696 308.127 262.567L308.13 247.518L310.419 250.332C314.073 254.826 319.06 261.984 322.159 267.185C325.052 272.042 328.596 279.616 328.596 280.944C328.596 282.107 329.482 281.776 330.904 280.083C332.847 277.77 334.208 271.642 333.787 267.104C333.361 262.505 331.127 254.708 329.24 251.235C328.446 249.773 326.163 247.112 324.167 245.321C322.172 243.531 320.635 241.972 320.75 241.854C320.866 241.737 323.758 242.389 327.175 243.303C330.593 244.217 333.91 244.965 334.548 244.965C336.357 244.965 346.779 248.125 350.861 249.911C352.888 250.798 354.68 251.389 354.843 251.225C355.237 250.831 353.094 244.956 351.117 241.008C348.075 234.932 342.304 230.77 334.048 228.694C329.333 227.508 325.293 227.452 320.517 228.504C318.592 228.928 316.821 229.285 316.581 229.295C315.626 229.337 317.021 228.048 319.903 226.224C321.574 225.168 324.637 222.56 326.711 220.429C330.716 216.314 338.386 210.885 343.689 208.413C345.453 207.591 346.899 206.742 346.902 206.527C346.91 205.983 344.064 204.564 340.492 203.332C331.377 200.189 321.742 202.306 314.996 208.935C311.588 212.282 308.154 217.213 306.292 221.433C305.558 223.096 304.809 224.457 304.628 224.457C304.447 224.457 303.797 223.304 303.183 221.893C301.602 218.259 297.861 213.136 294.726 210.312C291.68 207.569 286.125 204.726 282.136 203.868C277.438 202.859 270.199 203.524 265.609 205.388C261.803 206.934 260.157 208.266 262.052 208.266C263.745 208.267 269.674 211.126 273.56 213.817C275.727 215.317 279.522 218.385 281.994 220.635C284.466 222.886 287.971 225.672 289.783 226.826C291.595 227.981 292.976 229.027 292.852 229.152C292.727 229.276 291.207 228.943 289.472 228.412C287.302 227.747 284.536 227.443 280.61 227.437L274.901 227.427L269.809 229.96C263.502 233.097 259.963 236.48 257.326 241.887C255.109 246.436 253.54 251.441 254.331 251.441C254.629 251.441 256.857 250.622 259.283 249.622C265.398 247.101 270.04 245.789 278.507 244.185C282.506 243.429 286.483 242.651 287.345 242.459C288.754 242.144 288.559 242.454 285.404 245.56C281.496 249.407 280.737 250.67 278.322 257.336C276.834 261.446 276.649 262.599 276.674 267.631C276.698 272.327 276.946 273.983 278.118 277.293C279.631 281.562 280.477 282.906 280.844 281.618C280.964 281.198 281.454 279.506 281.933 277.859C283.749 271.61 298.615 248.257 300.805 248.213C301.485 248.204 300.816 268.209 299.785 278.695C298.876 287.95 297.946 294.745 296.536 302.466L295.653 307.298L282.099 307.321C270.605 307.34 267.479 307.527 261.542 308.547C251.023 310.353 249.19 311.031 231.478 319.67C214.973 327.719 207.394 329.889 196.849 329.58C190.584 329.397 191.328 330.233 188.017 319.653C182.435 301.818 178.064 280.186 175.924 259.806C175.457 255.354 174.839 249.525 174.55 246.854C173.36 235.824 172.743 206.904 173.401 192.934C174.041 179.341 174.416 175.317 175.035 175.381C175.328 175.412 187.885 191.14 189.871 193.964C190.927 195.465 191.283 194.867 191.795 190.727C192.04 188.75 192.342 187.03 192.467 186.905C192.888 186.484 194.488 193.115 194.488 195.276C194.488 198.054 196.592 200.794 197.894 199.711C198.607 199.117 198.864 199.277 199.643 200.807C200.344 202.184 205.502 209.957 206.73 211.489C206.842 211.628 207.15 211.393 207.414 210.965C207.976 210.053 207.918 209.999 209.735 213.124C211.598 216.327 221.04 229.271 221.531 229.296C222.169 229.326 222.995 225.482 223.581 219.757C224.64 209.42 222.716 199.308 217.87 189.736C213.423 180.953 208.638 175.845 198.631 169.199C195.132 166.876 192.378 164.868 192.509 164.736C192.642 164.605 194.655 164.97 196.984 165.549C199.314 166.127 202.371 166.718 203.779 166.859C206.284 167.113 206.337 167.087 206.337 165.604V164.089L208.626 165.361C210.64 166.481 217.848 169.409 218.59 169.409C218.742 169.409 218.736 168.438 218.577 167.251C218.418 166.063 218.389 165.092 218.512 165.092C218.637 165.093 219.903 165.914 221.327 166.917C224.255 168.979 227.013 170.489 227.854 170.489C228.165 170.489 228.419 169.958 228.419 169.309C228.419 168.159 228.458 168.166 229.93 169.578C230.76 170.376 231.821 171.028 232.287 171.028C232.753 171.028 234.013 171.396 235.086 171.845C236.827 172.574 237.036 172.574 237.036 171.845C237.036 170.803 237.52 170.811 238.69 171.873C239.203 172.337 241.645 173.441 244.118 174.326C246.592 175.212 249.913 176.67 251.498 177.566C253.082 178.461 254.485 179.087 254.616 178.958C254.965 178.609 252.926 171.528 251.635 168.602C244.843 153.217 231.807 144.13 214.416 142.657C207.212 142.047 196.178 144.457 190.608 147.855C189.214 148.705 188.212 149.106 188.381 148.746C188.55 148.386 191.592 145.42 195.143 142.155C198.694 138.89 202.651 135.247 203.938 134.06C205.224 132.873 206.835 131.474 207.518 130.951L208.761 129.999L207.549 129.131C206.882 128.653 206.337 128.091 206.337 127.881C206.338 127.671 208.758 126.337 211.716 124.916C216.724 122.509 217.932 121.378 215.493 121.378C213.617 121.378 213.905 120.481 216.188 119.215C217.435 118.523 219.911 116.926 221.692 115.665C225.028 113.302 234.522 108.426 235.785 108.425C237.159 108.425 236.478 107.358 234.44 106.316C226.053 102.029 213.201 101.123 203.375 104.126C195.584 106.507 186.619 112.602 182.083 118.601C178.222 123.707 173.354 133.678 172.099 139.051C171.528 141.498 170.923 143.501 170.757 143.503C170.59 143.504 169.788 141.799 168.975 139.714C166.667 133.793 163.894 129.571 159.215 124.854C147.375 112.918 130.253 110.598 112.488 118.524C110.786 119.284 109.409 120.054 109.427 120.237C109.447 120.419 111.844 121.72 114.755 123.129C119.983 125.658 132.638 133.754 135.02 136.093C135.695 136.756 139.643 139.848 143.791 142.965C151.966 149.106 153.192 150.375 149.782 149.17C143.416 146.919 130.361 146.782 122.943 148.889C115.881 150.894 109.487 154.763 104.524 160.035C100.694 164.102 99.6037 165.687 96.9894 170.994C93.9233 177.215 91.0065 187.838 92.5608 187.123C96.8397 185.155 106.386 179.942 107.629 178.895C109.53 177.292 109.93 177.191 109.93 178.314C109.93 179.463 110.282 179.351 113.09 177.304C116.128 175.089 119.08 173.541 119.487 173.949C119.652 174.114 120.107 173.828 120.497 173.314C120.911 172.767 121.213 172.651 121.223 173.035C121.233 173.397 121.604 173.553 122.048 173.383C122.493 173.211 122.856 173.341 122.856 173.669C122.856 174.772 124.272 174.281 127.369 172.108C129.06 170.92 130.642 169.949 130.885 169.949C131.126 169.949 131.209 170.556 131.067 171.298C130.767 172.87 131.088 172.926 134.163 171.839C135.421 171.395 139.236 170.404 142.642 169.639C146.048 168.873 149.171 168.119 149.58 167.961C149.989 167.804 150.314 167.883 150.302 168.138C150.289 168.392 148.653 169.615 146.667 170.854C136.152 177.416 129.784 185.266 125.347 197.134C120.835 209.202 120.753 220.534 125.076 234.261C125.715 236.289 126.421 237.949 126.644 237.949C126.868 237.948 128.181 235.36 129.563 232.197C130.946 229.034 132.755 225.452 133.585 224.237C134.596 222.756 135.181 221.091 135.359 219.183C135.673 215.835 136.063 215.261 137.077 216.651C137.757 217.584 138.111 217.079 141.206 210.747C144.151 204.722 144.679 203.943 145.266 204.747C145.87 205.575 146.057 205.443 147.055 203.482C147.896 201.829 148.17 200.275 148.17 197.134C148.17 192.88 148.528 192.457 149.564 195.488C149.887 196.431 150.371 197.176 150.641 197.143C151.693 197.014 152.711 193.771 152.992 189.654L153.286 185.343L154.311 187.63C154.874 188.888 155.5 189.917 155.7 189.917C155.902 189.916 156.816 188.871 157.731 187.593C160.231 184.106 165.943 178.335 165.943 179.297C165.943 179.756 165.598 181.788 165.176 183.811C160.883 204.376 160.603 254.868 164.607 286.25C165.872 296.167 170.279 318.353 172.205 324.502C172.485 325.396 172.306 325.478 170.714 325.194C166.122 324.375 152.735 323.241 147.631 323.238C127.935 323.229 105.08 327.685 91.9391 334.094C89.5984 335.237 87.5953 336.171 87.4863 336.171C86.8276 336.171 80.2151 325.075 76.5684 317.85C62.2803 289.543 56.0324 263.141 56.0001 230.933C55.9705 201.313 62.2246 175.149 75.7915 148.14C91.1547 117.554 114.434 92.1288 143.507 74.1834ZM319.6 99.4883C315.736 98.2843 306.907 98.0178 303.087 98.9898C286.138 103.303 275.704 120.049 279.253 137.244C281.664 148.927 291.611 159.136 303.282 161.905C315.935 164.908 329.87 159.141 337.119 147.903C340.47 142.707 341.606 138.845 341.903 131.632C342.132 126.098 342.016 124.977 340.835 121.287C340.106 119.012 338.63 115.573 337.555 113.645C334.189 107.616 326.68 101.696 319.6 99.4883Z" fill="url(#paint6_radial_40_2)"/>
<path d="M202.329 131.632C203.087 131.632 203.572 131.852 203.406 132.121C203.24 132.389 202.62 132.483 202.028 132.327C200.546 131.939 200.679 131.632 202.329 131.632Z" fill="black"/>
<path d="M202.329 131.632C203.087 131.632 203.572 131.852 203.406 132.121C203.24 132.389 202.62 132.483 202.028 132.327C200.546 131.939 200.679 131.632 202.329 131.632Z" fill="url(#paint7_radial_40_2)"/>
<path d="M478.112 249V138.4H534.044C556.954 138.4 572.438 149.776 572.438 167.314C572.438 178.216 565.644 187.222 555.216 192.278C568.962 196.86 577.494 206.024 577.494 218.19C577.494 236.676 559.008 249 534.044 249H478.112ZM551.266 170.79C551.266 162.732 543.998 157.36 534.044 157.36H500.232V183.904H534.044C543.366 183.904 551.266 178.374 551.266 170.79ZM555.216 216.136C555.216 207.13 547.316 202.232 534.044 202.232H500.232V229.882H534.044C546.842 229.882 555.216 224.668 555.216 216.136ZM587.239 193.858C587.239 160.52 613.151 136.03 647.911 136.03C682.513 136.03 708.425 159.256 708.425 193.858C708.425 227.986 682.513 251.37 647.911 251.37C613.309 251.37 587.239 226.722 587.239 193.858ZM609.359 193.858C609.359 215.188 625.475 230.198 647.911 230.198C670.821 230.198 686.305 215.188 686.305 193.858C686.305 172.054 670.821 157.202 647.911 157.202C625.317 157.202 609.359 172.054 609.359 193.858ZM775.261 229.724C792.483 229.724 804.649 216.452 804.649 197.176V138.4H826.769V197.176C826.769 227.67 805.913 250.896 775.261 250.896C745.241 250.896 723.753 227.67 723.753 197.176V138.4H745.873V197.176C745.873 215.978 758.355 229.724 775.261 229.724ZM868.847 175.214V249H846.727V138.4H864.423L933.153 211.712V138.4H955.273V249H937.419L868.847 175.214ZM1007.49 249V158.782H968.305V138.4H1068.48V158.782H1029.61V249H1007.49ZM1120.11 206.34L1069.24 138.4H1097.04L1131.17 183.904L1165.3 138.4H1193.11L1142.23 206.34V249H1120.11V206.34Z" fill="black"/>
<path d="M689.889 357V306.752H668.065V295.4H723.857V306.752H702.209V357H689.889ZM727.646 326.288C727.646 307.72 742.078 294.08 761.438 294.08C780.71 294.08 795.142 307.016 795.142 326.288C795.142 345.296 780.71 358.32 761.438 358.32C742.166 358.32 727.646 344.592 727.646 326.288ZM739.966 326.288C739.966 338.168 748.942 346.528 761.438 346.528C774.198 346.528 782.822 338.168 782.822 326.288C782.822 314.144 774.198 305.872 761.438 305.872C748.854 305.872 739.966 314.144 739.966 326.288ZM832.367 346.264C841.959 346.264 848.735 338.872 848.735 328.136V295.4H861.055V328.136C861.055 345.12 849.439 358.056 832.367 358.056C815.647 358.056 803.679 345.12 803.679 328.136V295.4H815.999V328.136C815.999 338.608 822.951 346.264 832.367 346.264ZM914.851 357L901.211 339.048H884.491V357H872.171V295.4H903.851C917.051 295.4 927.963 304.112 927.963 317.224C927.963 325.848 922.331 333.064 914.675 336.672L930.163 357H914.851ZM915.643 317.224C915.643 311.152 910.715 306.752 903.851 306.752H884.491V327.52H903.851C910.627 327.52 915.643 323.032 915.643 317.224ZM989.537 339.84C989.537 350.048 979.593 358.32 963.137 358.32C946.593 358.32 933.745 350.224 932.865 338.08H945.713C947.033 343.976 953.985 347.76 962.961 347.76C971.321 347.76 977.217 344.24 977.217 339.488C977.217 324.792 933.657 339.752 933.657 311.592C933.657 300.768 945.097 294.08 960.233 294.08C976.249 294.08 987.513 301.736 988.481 312.912H975.721C974.665 308.16 968.153 304.288 960.233 304.288C951.609 304.288 945.977 307.544 945.977 311.944C945.977 325.584 989.537 311.328 989.537 339.84Z" fill="black"/>
<rect x="570" y="320" width="66" height="12" fill="black"/>
<rect x="1023" y="320" width="66" height="12" fill="black"/>
<defs>
<radialGradient id="paint0_radial_40_2" cx="0" cy="0" r="1" gradientUnits="userSpaceOnUse" gradientTransform="translate(316 133) rotate(118.264) scale(316.766 316.766)">
<stop stop-color="#E6C06D"/>
<stop offset="1" stop-color="#EE2E31"/>
</radialGradient>
<radialGradient id="paint1_radial_40_2" cx="0" cy="0" r="1" gradientUnits="userSpaceOnUse" gradientTransform="translate(316 133) rotate(118.264) scale(316.766 316.766)">
<stop stop-color="#E6C06D"/>
<stop offset="1" stop-color="#EE2E31"/>
</radialGradient>
<radialGradient id="paint2_radial_40_2" cx="0" cy="0" r="1" gradientUnits="userSpaceOnUse" gradientTransform="translate(316 133) rotate(118.264) scale(316.766 316.766)">
<stop stop-color="#E6C06D"/>
<stop offset="1" stop-color="#EE2E31"/>
</radialGradient>
<radialGradient id="paint3_radial_40_2" cx="0" cy="0" r="1" gradientUnits="userSpaceOnUse" gradientTransform="translate(316 133) rotate(118.264) scale(316.766 316.766)">
<stop stop-color="#E6C06D"/>
<stop offset="1" stop-color="#EE2E31"/>
</radialGradient>
<radialGradient id="paint4_radial_40_2" cx="0" cy="0" r="1" gradientUnits="userSpaceOnUse" gradientTransform="translate(316 133) rotate(118.264) scale(316.766 316.766)">
<stop stop-color="#E6C06D"/>
<stop offset="1" stop-color="#EE2E31"/>
</radialGradient>
<radialGradient id="paint5_radial_40_2" cx="0" cy="0" r="1" gradientUnits="userSpaceOnUse" gradientTransform="translate(316 133) rotate(118.264) scale(316.766 316.766)">
<stop stop-color="#E6C06D"/>
<stop offset="1" stop-color="#EE2E31"/>
</radialGradient>
<radialGradient id="paint6_radial_40_2" cx="0" cy="0" r="1" gradientUnits="userSpaceOnUse" gradientTransform="translate(316 133) rotate(118.264) scale(316.766 316.766)">
<stop stop-color="#E6C06D"/>
<stop offset="1" stop-color="#EE2E31"/>
</radialGradient>
<radialGradient id="paint7_radial_40_2" cx="0" cy="0" r="1" gradientUnits="userSpaceOnUse" gradientTransform="translate(316 133) rotate(118.264) scale(316.766 316.766)">
<stop stop-color="#E6C06D"/>
<stop offset="1" stop-color="#EE2E31"/>
</radialGradient>
</defs>
</svg>
