<svg width="1248" height="1248" viewBox="0 0 1248 1248" fill="none" xmlns="http://www.w3.org/2000/svg">
<rect width="1248" height="1248" rx="70" fill="#181818"/>
<path d="M908.119 994.235C914.626 993.142 944.13 993.212 944.134 994.321C944.134 996.686 902.46 1023.97 887.348 1031.49C875.442 1037.42 867.561 1040.26 856.926 1042.46C830.894 1047.85 789.489 1044.31 771.51 1035.16L766.719 1032.72L781.966 1030.95C818.866 1026.66 841.907 1020.55 874.985 1006.31C894.582 997.87 901.51 995.346 908.119 994.235Z" fill="white"/>
<path d="M908.119 994.235C914.626 993.142 944.13 993.212 944.134 994.321C944.134 996.686 902.46 1023.97 887.348 1031.49C875.442 1037.42 867.561 1040.26 856.926 1042.46C830.894 1047.85 789.489 1044.31 771.51 1035.16L766.719 1032.72L781.966 1030.95C818.866 1026.66 841.907 1020.55 874.985 1006.31C894.582 997.87 901.51 995.346 908.119 994.235Z" fill="url(#paint0_radial_40_9)"/>
<path d="M861.299 958.627C883.616 943.376 915.931 938.199 955.983 943.456C972.359 945.605 987.511 949.728 988.358 952.265C988.606 953.012 983.782 958.576 977.637 964.63L966.464 975.634L953.498 972.922C938.114 969.702 918.306 969.425 905.03 972.241C899.764 973.359 883.65 978.912 869.223 984.583C825.408 1001.8 788.245 1009.97 746.771 1011.48L724.442 1012.29L713.637 1006.21C707.695 1002.87 698.783 997.875 693.833 995.113C688.885 992.352 684.525 989.589 684.144 988.973C682.675 986.592 706.855 984.292 745.788 983.111C809.318 981.181 836.826 975.35 861.299 958.627Z" fill="white"/>
<path d="M861.299 958.627C883.616 943.376 915.931 938.199 955.983 943.456C972.359 945.605 987.511 949.728 988.358 952.265C988.606 953.012 983.782 958.576 977.637 964.63L966.464 975.634L953.498 972.922C938.114 969.702 918.306 969.425 905.03 972.241C899.764 973.359 883.65 978.912 869.223 984.583C825.408 1001.8 788.245 1009.97 746.771 1011.48L724.442 1012.29L713.637 1006.21C707.695 1002.87 698.783 997.875 693.833 995.113C688.885 992.352 684.525 989.589 684.144 988.973C682.675 986.592 706.855 984.292 745.788 983.111C809.318 981.181 836.826 975.35 861.299 958.627Z" fill="url(#paint1_radial_40_9)"/>
<path d="M732.725 927.013C733.32 926.945 733.806 927.624 733.806 928.521C733.806 932.24 721.727 957.373 719.319 958.665C717.883 959.435 713.91 960.067 710.492 960.072C704.937 960.079 692.542 962.01 663.216 967.431L653.852 969.164L642.483 961.89C629.08 953.316 628.463 954.154 653.973 946.239C688.83 935.423 715.004 929.034 732.725 927.013Z" fill="white"/>
<path d="M732.725 927.013C733.32 926.945 733.806 927.624 733.806 928.521C733.806 932.24 721.727 957.373 719.319 958.665C717.883 959.435 713.91 960.067 710.492 960.072C704.937 960.079 692.542 962.01 663.216 967.431L653.852 969.164L642.483 961.89C629.08 953.316 628.463 954.154 653.973 946.239C688.83 935.423 715.004 929.034 732.725 927.013Z" fill="url(#paint2_radial_40_9)"/>
<path d="M823.123 843.114C836.037 841.581 863.764 842.806 874.631 845.39C879.585 846.569 891.902 850.727 902.002 854.633C936.178 867.846 945.941 869.198 1007.12 869.198C1031.9 869.198 1052.14 869.684 1052.09 870.28C1052.04 870.875 1048.94 876.229 1045.2 882.179C1038.43 892.946 1038.36 892.999 1031.24 893.717C1019.14 894.937 971.429 892.653 959.489 890.281C953.275 889.046 942.579 885.452 935.719 882.292C920.072 875.086 909.952 872.413 890.946 870.47C873.104 868.644 850.773 870.769 840.05 875.31C833.195 878.213 832.161 879.733 834.513 883.451C835.784 885.46 839.416 885.896 883.955 889.366C904.118 890.937 915.299 893.562 930.509 900.296C947.745 907.928 985.316 913.456 1011.77 912.253C1018.15 911.963 1023.36 912.091 1023.37 912.536C1023.37 913.844 1017.42 921.506 1010.03 929.713L1003.17 937.329L987.634 932.161C964.476 924.459 948.328 921.855 924.686 922.016C893.423 922.226 879.151 925.84 838.25 943.899C820.676 951.661 799.396 956.784 776.199 958.839C765.567 959.782 756.534 960.218 756.121 959.809C754.989 958.675 769.347 927.978 771.52 926.886C772.566 926.363 779.905 925.141 787.828 924.172C795.752 923.203 812.904 920.312 825.944 917.749L849.652 913.091L845.392 910.098C836.22 903.655 816.307 899.567 793.854 899.516C782.428 899.49 781.231 899.233 781.931 896.963C785.182 886.427 792.87 856.681 792.871 854.633C792.871 848.836 800.996 845.742 823.123 843.114Z" fill="white"/>
<path d="M823.123 843.114C836.037 841.581 863.764 842.806 874.631 845.39C879.585 846.569 891.902 850.727 902.002 854.633C936.178 867.846 945.941 869.198 1007.12 869.198C1031.9 869.198 1052.14 869.684 1052.09 870.28C1052.04 870.875 1048.94 876.229 1045.2 882.179C1038.43 892.946 1038.36 892.999 1031.24 893.717C1019.14 894.937 971.429 892.653 959.489 890.281C953.275 889.046 942.579 885.452 935.719 882.292C920.072 875.086 909.952 872.413 890.946 870.47C873.104 868.644 850.773 870.769 840.05 875.31C833.195 878.213 832.161 879.733 834.513 883.451C835.784 885.46 839.416 885.896 883.955 889.366C904.118 890.937 915.299 893.562 930.509 900.296C947.745 907.928 985.316 913.456 1011.77 912.253C1018.15 911.963 1023.36 912.091 1023.37 912.536C1023.37 913.844 1017.42 921.506 1010.03 929.713L1003.17 937.329L987.634 932.161C964.476 924.459 948.328 921.855 924.686 922.016C893.423 922.226 879.151 925.84 838.25 943.899C820.676 951.661 799.396 956.784 776.199 958.839C765.567 959.782 756.534 960.218 756.121 959.809C754.989 958.675 769.347 927.978 771.52 926.886C772.566 926.363 779.905 925.141 787.828 924.172C795.752 923.203 812.904 920.312 825.944 917.749L849.652 913.091L845.392 910.098C836.22 903.655 816.307 899.567 793.854 899.516C782.428 899.49 781.231 899.233 781.931 896.963C785.182 886.427 792.87 856.681 792.871 854.633C792.871 848.836 800.996 845.742 823.123 843.114Z" fill="url(#paint3_radial_40_9)"/>
<path d="M750.373 857.66C757.391 855.871 761.177 856.059 761.177 858.195C761.177 861.543 753.154 888.292 750.027 895.371C747.153 901.874 746.857 902.086 739.359 903.02C710.954 906.557 686.479 913.01 650.251 926.51C620.273 937.682 608.795 939.417 598.764 934.293C595.496 932.625 592.469 930.689 592.04 929.992C591.609 929.295 595.488 928.29 600.659 927.759C613.056 926.489 624.143 922.195 632.865 915.293C652.555 899.712 668.651 892.15 693.954 886.597C723.102 880.201 735.935 874.208 743.427 863.498C745.748 860.181 745.733 860.085 743.068 861.189C739.515 862.662 728.187 862.23 725.249 860.509C723.743 859.625 726.802 859.119 734.526 858.975C740.865 858.857 747.996 858.265 750.373 857.66Z" fill="white"/>
<path d="M750.373 857.66C757.391 855.871 761.177 856.059 761.177 858.195C761.177 861.543 753.154 888.292 750.027 895.371C747.153 901.874 746.857 902.086 739.359 903.02C710.954 906.557 686.479 913.01 650.251 926.51C620.273 937.682 608.795 939.417 598.764 934.293C595.496 932.625 592.469 930.689 592.04 929.992C591.609 929.295 595.488 928.29 600.659 927.759C613.056 926.489 624.143 922.195 632.865 915.293C652.555 899.712 668.651 892.15 693.954 886.597C723.102 880.201 735.935 874.208 743.427 863.498C745.748 860.181 745.733 860.085 743.068 861.189C739.515 862.662 728.187 862.23 725.249 860.509C723.743 859.625 726.802 859.119 734.526 858.975C740.865 858.857 747.996 858.265 750.373 857.66Z" fill="url(#paint4_radial_40_9)"/>
<path d="M688.024 854.875C698.933 853.457 743.313 852.951 742.005 854.261C741.495 854.77 736.039 855.975 729.879 856.939C712.262 859.696 676.568 867.629 666.937 870.929C653.964 875.371 639.681 882.879 624.663 893.144C609.444 903.547 601.417 906.398 583.797 907.659C571.581 908.533 548.667 906.111 547.236 903.795C546.863 903.189 549.584 902.241 553.285 901.685C565.216 899.894 578.398 895.128 604.151 883.297C644.167 864.915 664.926 857.881 688.024 854.875Z" fill="white"/>
<path d="M688.024 854.875C698.933 853.457 743.313 852.951 742.005 854.261C741.495 854.77 736.039 855.975 729.879 856.939C712.262 859.696 676.568 867.629 666.937 870.929C653.964 875.371 639.681 882.879 624.663 893.144C609.444 903.547 601.417 906.398 583.797 907.659C571.581 908.533 548.667 906.111 547.236 903.795C546.863 903.189 549.584 902.241 553.285 901.685C565.216 899.894 578.398 895.128 604.151 883.297C644.167 864.915 664.926 857.881 688.024 854.875Z" fill="url(#paint5_radial_40_9)"/>
<path fill-rule="evenodd" clip-rule="evenodd" d="M364.062 203.648C449.904 150.705 555.232 124.875 655.293 132.231C724.8 137.34 783.087 152.687 841.131 181.163C928.433 223.992 1000.34 289.915 1047.83 370.65C1057.43 386.968 1075.18 422.53 1080.72 436.507C1105.6 499.367 1116.99 558.224 1117 624.007C1117.02 700.545 1102.07 769.051 1070.85 835.557L1063.96 850.234L1056.99 851.283C1046.49 852.864 968.601 850.737 951.337 848.396C934.289 846.085 926.12 843.623 912.1 836.566C899.236 830.092 883.488 825.052 867.378 822.253C850.899 819.391 818.52 819.37 806.568 822.215C801.821 823.345 797.797 824.13 797.626 823.958C797.456 823.778 798.232 817.109 799.35 809.131C802.626 785.763 804.381 750.211 804.388 707.105L804.395 666.888L810.518 674.408C820.294 686.418 833.632 705.547 841.922 719.449C849.66 732.428 859.138 752.669 859.138 756.218C859.138 759.326 861.51 758.442 865.313 753.918C870.509 747.736 874.149 731.359 873.024 719.232C871.883 706.941 865.908 686.103 860.862 676.821C858.737 672.913 852.632 665.801 847.293 661.016C841.956 656.232 837.844 652.064 838.151 651.749C838.462 651.438 846.198 653.181 855.339 655.623C864.48 658.064 873.352 660.063 875.058 660.064C879.899 660.064 907.776 668.508 918.694 673.282C924.114 675.652 928.907 677.234 929.344 676.795C930.397 675.741 924.667 660.04 919.378 649.489C911.24 633.251 895.805 622.127 873.722 616.58C861.109 613.412 850.305 613.259 837.529 616.073C832.381 617.206 827.644 618.158 827.001 618.186C824.446 618.297 828.177 614.852 835.888 609.98C840.356 607.156 848.55 600.186 854.096 594.492C864.809 583.495 885.326 568.985 899.511 562.378C904.228 560.181 908.095 557.912 908.105 557.337C908.125 555.883 900.513 552.093 890.957 548.8C866.578 540.399 840.807 546.057 822.76 563.773C813.646 572.719 804.462 585.897 799.48 597.174C797.516 601.619 795.514 605.256 795.03 605.256C794.546 605.256 792.806 602.174 791.165 598.405C786.934 588.693 776.928 575.002 768.543 567.455C760.397 560.122 745.538 552.525 734.868 550.233C722.303 547.536 702.939 549.313 690.662 554.295C680.481 558.426 676.078 561.987 681.148 561.987C685.675 561.987 701.534 569.63 711.929 576.821C717.725 580.831 727.876 589.03 734.488 595.043C741.099 601.057 750.474 608.503 755.322 611.589C760.168 614.675 763.862 617.471 763.531 617.804C763.197 618.135 759.13 617.246 754.489 615.827C748.685 614.05 741.287 613.237 730.785 613.22L715.517 613.193L701.896 619.963C685.027 628.348 675.559 637.388 668.507 651.838C662.576 663.995 658.379 677.371 660.495 677.371C661.291 677.37 667.251 675.183 673.742 672.509C690.096 665.774 702.513 662.266 725.162 657.98C735.859 655.958 746.496 653.881 748.8 653.366C752.57 652.524 752.048 653.355 743.609 661.655C733.156 671.937 731.125 675.311 724.667 693.127C720.685 704.111 720.19 707.193 720.259 720.64C720.323 733.19 720.985 737.614 724.121 746.461C728.166 757.871 730.432 761.462 731.413 758.021C731.734 756.897 733.044 752.376 734.325 747.974C739.181 731.275 778.946 668.861 784.802 668.744C786.622 668.72 784.833 722.185 782.076 750.208C779.643 774.942 777.157 793.102 773.384 813.736L771.024 826.65L734.768 826.711C704.026 826.763 695.663 827.261 679.783 829.987C651.648 834.814 646.744 836.626 599.368 859.713C555.219 881.227 534.948 887.024 506.741 886.2C489.986 885.71 491.974 887.944 483.118 859.668C468.187 812.006 456.497 754.193 450.773 699.727C449.523 687.828 447.869 672.251 447.097 665.112C443.913 635.635 442.264 558.346 444.023 521.011C445.736 484.683 446.737 473.928 448.394 474.1C449.178 474.183 482.766 516.216 488.078 523.763C490.902 527.775 491.854 526.176 493.224 515.112C493.878 509.829 494.688 505.233 495.022 504.897C496.146 503.774 500.427 521.493 500.427 527.268C500.427 534.693 506.055 542.016 509.537 539.122C511.446 537.536 512.131 537.963 514.216 542.052C516.092 545.731 529.888 566.505 533.173 570.598C533.473 570.972 534.296 570.342 535.002 569.198C536.506 566.762 536.35 566.617 541.21 574.967C546.193 583.529 571.448 618.122 572.762 618.187C574.467 618.27 576.677 607.995 578.246 592.696C581.078 565.069 575.933 538.044 562.97 512.465C551.075 488.99 538.275 475.339 511.508 457.579C502.151 451.371 494.783 446.003 495.134 445.651C495.488 445.302 500.873 446.278 507.103 447.823C513.335 449.369 521.514 450.947 525.278 451.326C531.979 452.003 532.121 451.934 532.121 447.97V443.922L538.243 447.322C543.63 450.315 562.909 458.14 564.896 458.141C565.302 458.141 565.286 455.544 564.861 452.371C564.436 449.198 564.358 446.602 564.686 446.602C565.02 446.605 568.407 448.799 572.217 451.481C580.048 456.991 587.426 461.025 589.673 461.025C590.506 461.025 591.186 459.606 591.186 457.872C591.186 454.798 591.289 454.817 595.226 458.593C597.447 460.724 600.285 462.467 601.533 462.467C602.779 462.467 606.148 463.449 609.017 464.649C613.676 466.599 614.235 466.599 614.235 464.649C614.236 461.865 615.528 461.887 618.66 464.724C620.029 465.965 626.563 468.915 633.179 471.282C639.795 473.649 648.677 477.544 652.916 479.939C657.154 482.332 660.906 484.006 661.256 483.66C662.19 482.727 656.738 463.803 653.284 455.983C635.118 414.867 600.247 390.581 553.73 386.645C534.462 385.015 504.948 391.455 490.049 400.537C486.321 402.808 483.64 403.881 484.091 402.919C484.544 401.955 492.682 394.029 502.179 385.304C511.677 376.578 522.263 366.843 525.703 363.669C529.143 360.496 533.452 356.757 535.281 355.359L538.604 352.817L535.362 350.496C533.579 349.218 532.121 347.716 532.121 347.156C532.125 346.595 538.598 343.028 546.509 339.23C559.904 332.798 563.134 329.775 556.611 329.775C551.593 329.775 552.364 327.38 558.471 323.995C561.806 322.147 568.43 317.878 573.192 314.508C582.115 308.194 607.509 295.161 610.888 295.16C614.563 295.16 612.742 292.307 607.29 289.522C584.858 278.066 550.481 275.644 524.197 283.671C503.359 290.034 479.38 306.323 467.246 322.355C456.919 336 443.898 362.649 440.541 377.008C439.013 383.547 437.397 388.9 436.951 388.907C436.504 388.908 434.36 384.351 432.186 378.78C426.013 362.956 418.594 351.671 406.08 339.067C374.409 307.168 328.611 300.966 281.095 322.15C276.54 324.18 272.858 326.239 272.907 326.727C272.959 327.213 279.372 330.691 287.159 334.456C301.141 341.216 334.991 362.853 341.361 369.102C343.169 370.875 353.727 379.139 364.823 387.467C386.69 403.881 389.968 407.272 380.849 404.051C363.819 398.035 328.9 397.67 309.059 403.299C290.17 408.659 273.068 418.998 259.791 433.088C249.547 443.957 246.631 448.194 239.638 462.375C231.437 479.001 223.635 507.391 227.793 505.48C239.238 500.222 264.774 486.29 268.096 483.491C273.181 479.207 274.252 478.937 274.252 481.939C274.252 485.009 275.193 484.709 282.703 479.24C290.831 473.321 298.727 469.183 299.815 470.272C300.257 470.715 301.473 469.951 302.516 468.575C303.625 467.114 304.432 466.803 304.459 467.831C304.484 468.797 305.477 469.215 306.666 468.759C307.854 468.302 308.827 468.647 308.827 469.525C308.827 472.471 312.613 471.161 320.898 465.352C325.421 462.179 329.653 459.583 330.301 459.583C330.947 459.583 331.168 461.206 330.789 463.189C329.987 467.39 330.844 467.54 339.07 464.634C342.434 463.447 352.639 460.8 361.751 458.755C370.861 456.708 379.212 454.691 380.307 454.27C381.402 453.85 382.272 454.063 382.239 454.742C382.204 455.423 377.829 458.689 372.515 462.003C344.39 479.54 327.356 500.519 315.488 532.236C303.42 564.488 303.2 594.772 314.765 631.458C316.474 636.878 318.361 641.314 318.957 641.314C319.556 641.311 323.07 634.394 326.767 625.943C330.465 617.489 335.305 607.915 337.524 604.669C340.227 600.711 341.792 596.261 342.27 591.162C343.11 582.213 344.151 580.681 346.864 584.395C348.684 586.888 349.63 585.539 357.909 568.615C365.787 552.515 367.198 550.432 368.768 552.582C370.384 554.794 370.884 554.441 373.554 549.202C375.804 544.784 376.535 540.629 376.535 532.236C376.535 520.867 377.493 519.736 380.265 527.836C381.128 530.357 382.424 532.347 383.146 532.259C385.96 531.916 388.683 523.247 389.435 512.244L390.221 500.722L392.962 506.835C394.468 510.197 396.141 512.948 396.678 512.948C397.219 512.946 399.662 510.152 402.11 506.738C408.796 497.418 424.075 481.994 424.075 484.565C424.075 485.793 423.152 491.222 422.023 496.629C410.541 551.59 409.791 686.53 420.501 770.4C423.885 796.902 435.674 856.195 440.825 872.629C441.573 875.016 441.096 875.237 436.837 874.479C424.553 872.288 388.747 869.257 375.095 869.25C322.412 869.227 261.279 881.134 226.13 898.264C219.869 901.317 214.511 903.812 214.219 903.813C212.458 903.813 194.771 874.159 185.016 854.85C146.799 779.199 130.087 708.639 130 622.564C129.921 543.403 146.649 473.481 182.938 401.299C224.032 319.558 286.3 251.607 364.062 203.648ZM835.076 271.276C824.741 268.058 801.126 267.346 790.908 269.943C745.571 281.471 717.663 326.225 727.156 372.18C733.605 403.402 760.211 430.684 791.43 438.086C825.273 446.111 862.546 430.7 881.936 400.665C890.9 386.779 893.938 376.457 894.733 357.179C895.344 342.39 895.033 339.395 891.876 329.534C889.927 323.454 885.978 314.263 883.101 309.111C874.1 292.998 854.014 277.175 835.076 271.276Z" fill="white"/>
<path fill-rule="evenodd" clip-rule="evenodd" d="M364.062 203.648C449.904 150.705 555.232 124.875 655.293 132.231C724.8 137.34 783.087 152.687 841.131 181.163C928.433 223.992 1000.34 289.915 1047.83 370.65C1057.43 386.968 1075.18 422.53 1080.72 436.507C1105.6 499.367 1116.99 558.224 1117 624.007C1117.02 700.545 1102.07 769.051 1070.85 835.557L1063.96 850.234L1056.99 851.283C1046.49 852.864 968.601 850.737 951.337 848.396C934.289 846.085 926.12 843.623 912.1 836.566C899.236 830.092 883.488 825.052 867.378 822.253C850.899 819.391 818.52 819.37 806.568 822.215C801.821 823.345 797.797 824.13 797.626 823.958C797.456 823.778 798.232 817.109 799.35 809.131C802.626 785.763 804.381 750.211 804.388 707.105L804.395 666.888L810.518 674.408C820.294 686.418 833.632 705.547 841.922 719.449C849.66 732.428 859.138 752.669 859.138 756.218C859.138 759.326 861.51 758.442 865.313 753.918C870.509 747.736 874.149 731.359 873.024 719.232C871.883 706.941 865.908 686.103 860.862 676.821C858.737 672.913 852.632 665.801 847.293 661.016C841.956 656.232 837.844 652.064 838.151 651.749C838.462 651.438 846.198 653.181 855.339 655.623C864.48 658.064 873.352 660.063 875.058 660.064C879.899 660.064 907.776 668.508 918.694 673.282C924.114 675.652 928.907 677.234 929.344 676.795C930.397 675.741 924.667 660.04 919.378 649.489C911.24 633.251 895.805 622.127 873.722 616.58C861.109 613.412 850.305 613.259 837.529 616.073C832.381 617.206 827.644 618.158 827.001 618.186C824.446 618.297 828.177 614.852 835.888 609.98C840.356 607.156 848.55 600.186 854.096 594.492C864.809 583.495 885.326 568.985 899.511 562.378C904.228 560.181 908.095 557.912 908.105 557.337C908.125 555.883 900.513 552.093 890.957 548.8C866.578 540.399 840.807 546.057 822.76 563.773C813.646 572.719 804.462 585.897 799.48 597.174C797.516 601.619 795.514 605.256 795.03 605.256C794.546 605.256 792.806 602.174 791.165 598.405C786.934 588.693 776.928 575.002 768.543 567.455C760.397 560.122 745.538 552.525 734.868 550.233C722.303 547.536 702.939 549.313 690.662 554.295C680.481 558.426 676.078 561.987 681.148 561.987C685.675 561.987 701.534 569.63 711.929 576.821C717.725 580.831 727.876 589.03 734.488 595.043C741.099 601.057 750.474 608.503 755.322 611.589C760.168 614.675 763.862 617.471 763.531 617.804C763.197 618.135 759.13 617.246 754.489 615.827C748.685 614.05 741.287 613.237 730.785 613.22L715.517 613.193L701.896 619.963C685.027 628.348 675.559 637.388 668.507 651.838C662.576 663.995 658.379 677.371 660.495 677.371C661.291 677.37 667.251 675.183 673.742 672.509C690.096 665.774 702.513 662.266 725.162 657.98C735.859 655.958 746.496 653.881 748.8 653.366C752.57 652.524 752.048 653.355 743.609 661.655C733.156 671.937 731.125 675.311 724.667 693.127C720.685 704.111 720.19 707.193 720.259 720.64C720.323 733.19 720.985 737.614 724.121 746.461C728.166 757.871 730.432 761.462 731.413 758.021C731.734 756.897 733.044 752.376 734.325 747.974C739.181 731.275 778.946 668.861 784.802 668.744C786.622 668.72 784.833 722.185 782.076 750.208C779.643 774.942 777.157 793.102 773.384 813.736L771.024 826.65L734.768 826.711C704.026 826.763 695.663 827.261 679.783 829.987C651.648 834.814 646.744 836.626 599.368 859.713C555.219 881.227 534.948 887.024 506.741 886.2C489.986 885.71 491.974 887.944 483.118 859.668C468.187 812.006 456.497 754.193 450.773 699.727C449.523 687.828 447.869 672.251 447.097 665.112C443.913 635.635 442.264 558.346 444.023 521.011C445.736 484.683 446.737 473.928 448.394 474.1C449.178 474.183 482.766 516.216 488.078 523.763C490.902 527.775 491.854 526.176 493.224 515.112C493.878 509.829 494.688 505.233 495.022 504.897C496.146 503.774 500.427 521.493 500.427 527.268C500.427 534.693 506.055 542.016 509.537 539.122C511.446 537.536 512.131 537.963 514.216 542.052C516.092 545.731 529.888 566.505 533.173 570.598C533.473 570.972 534.296 570.342 535.002 569.198C536.506 566.762 536.35 566.617 541.21 574.967C546.193 583.529 571.448 618.122 572.762 618.187C574.467 618.27 576.677 607.995 578.246 592.696C581.078 565.069 575.933 538.044 562.97 512.465C551.075 488.99 538.275 475.339 511.508 457.579C502.151 451.371 494.783 446.003 495.134 445.651C495.488 445.302 500.873 446.278 507.103 447.823C513.335 449.369 521.514 450.947 525.278 451.326C531.979 452.003 532.121 451.934 532.121 447.97V443.922L538.243 447.322C543.63 450.315 562.909 458.14 564.896 458.141C565.302 458.141 565.286 455.544 564.861 452.371C564.436 449.198 564.358 446.602 564.686 446.602C565.02 446.605 568.407 448.799 572.217 451.481C580.048 456.991 587.426 461.025 589.673 461.025C590.506 461.025 591.186 459.606 591.186 457.872C591.186 454.798 591.289 454.817 595.226 458.593C597.447 460.724 600.285 462.467 601.533 462.467C602.779 462.467 606.148 463.449 609.017 464.649C613.676 466.599 614.235 466.599 614.235 464.649C614.236 461.865 615.528 461.887 618.66 464.724C620.029 465.965 626.563 468.915 633.179 471.282C639.795 473.649 648.677 477.544 652.916 479.939C657.154 482.332 660.906 484.006 661.256 483.66C662.19 482.727 656.738 463.803 653.284 455.983C635.118 414.867 600.247 390.581 553.73 386.645C534.462 385.015 504.948 391.455 490.049 400.537C486.321 402.808 483.64 403.881 484.091 402.919C484.544 401.955 492.682 394.029 502.179 385.304C511.677 376.578 522.263 366.843 525.703 363.669C529.143 360.496 533.452 356.757 535.281 355.359L538.604 352.817L535.362 350.496C533.579 349.218 532.121 347.716 532.121 347.156C532.125 346.595 538.598 343.028 546.509 339.23C559.904 332.798 563.134 329.775 556.611 329.775C551.593 329.775 552.364 327.38 558.471 323.995C561.806 322.147 568.43 317.878 573.192 314.508C582.115 308.194 607.509 295.161 610.888 295.16C614.563 295.16 612.742 292.307 607.29 289.522C584.858 278.066 550.481 275.644 524.197 283.671C503.359 290.034 479.38 306.323 467.246 322.355C456.919 336 443.898 362.649 440.541 377.008C439.013 383.547 437.397 388.9 436.951 388.907C436.504 388.908 434.36 384.351 432.186 378.78C426.013 362.956 418.594 351.671 406.08 339.067C374.409 307.168 328.611 300.966 281.095 322.15C276.54 324.18 272.858 326.239 272.907 326.727C272.959 327.213 279.372 330.691 287.159 334.456C301.141 341.216 334.991 362.853 341.361 369.102C343.169 370.875 353.727 379.139 364.823 387.467C386.69 403.881 389.968 407.272 380.849 404.051C363.819 398.035 328.9 397.67 309.059 403.299C290.17 408.659 273.068 418.998 259.791 433.088C249.547 443.957 246.631 448.194 239.638 462.375C231.437 479.001 223.635 507.391 227.793 505.48C239.238 500.222 264.774 486.29 268.096 483.491C273.181 479.207 274.252 478.937 274.252 481.939C274.252 485.009 275.193 484.709 282.703 479.24C290.831 473.321 298.727 469.183 299.815 470.272C300.257 470.715 301.473 469.951 302.516 468.575C303.625 467.114 304.432 466.803 304.459 467.831C304.484 468.797 305.477 469.215 306.666 468.759C307.854 468.302 308.827 468.647 308.827 469.525C308.827 472.471 312.613 471.161 320.898 465.352C325.421 462.179 329.653 459.583 330.301 459.583C330.947 459.583 331.168 461.206 330.789 463.189C329.987 467.39 330.844 467.54 339.07 464.634C342.434 463.447 352.639 460.8 361.751 458.755C370.861 456.708 379.212 454.691 380.307 454.27C381.402 453.85 382.272 454.063 382.239 454.742C382.204 455.423 377.829 458.689 372.515 462.003C344.39 479.54 327.356 500.519 315.488 532.236C303.42 564.488 303.2 594.772 314.765 631.458C316.474 636.878 318.361 641.314 318.957 641.314C319.556 641.311 323.07 634.394 326.767 625.943C330.465 617.489 335.305 607.915 337.524 604.669C340.227 600.711 341.792 596.261 342.27 591.162C343.11 582.213 344.151 580.681 346.864 584.395C348.684 586.888 349.63 585.539 357.909 568.615C365.787 552.515 367.198 550.432 368.768 552.582C370.384 554.794 370.884 554.441 373.554 549.202C375.804 544.784 376.535 540.629 376.535 532.236C376.535 520.867 377.493 519.736 380.265 527.836C381.128 530.357 382.424 532.347 383.146 532.259C385.96 531.916 388.683 523.247 389.435 512.244L390.221 500.722L392.962 506.835C394.468 510.197 396.141 512.948 396.678 512.948C397.219 512.946 399.662 510.152 402.11 506.738C408.796 497.418 424.075 481.994 424.075 484.565C424.075 485.793 423.152 491.222 422.023 496.629C410.541 551.59 409.791 686.53 420.501 770.4C423.885 796.902 435.674 856.195 440.825 872.629C441.573 875.016 441.096 875.237 436.837 874.479C424.553 872.288 388.747 869.257 375.095 869.25C322.412 869.227 261.279 881.134 226.13 898.264C219.869 901.317 214.511 903.812 214.219 903.813C212.458 903.813 194.771 874.159 185.016 854.85C146.799 779.199 130.087 708.639 130 622.564C129.921 543.403 146.649 473.481 182.938 401.299C224.032 319.558 286.3 251.607 364.062 203.648ZM835.076 271.276C824.741 268.058 801.126 267.346 790.908 269.943C745.571 281.471 717.663 326.225 727.156 372.18C733.605 403.402 760.211 430.684 791.43 438.086C825.273 446.111 862.546 430.7 881.936 400.665C890.9 386.779 893.938 376.457 894.733 357.179C895.344 342.39 895.033 339.395 891.876 329.534C889.927 323.454 885.978 314.263 883.101 309.111C874.1 292.998 854.014 277.175 835.076 271.276Z" fill="url(#paint6_radial_40_9)"/>
<path d="M521.401 357.179C523.428 357.179 524.724 357.768 524.28 358.486C523.836 359.204 522.177 359.454 520.595 359.038C516.63 358.001 516.987 357.179 521.401 357.179Z" fill="white"/>
<path d="M521.401 357.179C523.428 357.179 524.724 357.768 524.28 358.486C523.836 359.204 522.177 359.454 520.595 359.038C516.63 358.001 516.987 357.179 521.401 357.179Z" fill="url(#paint7_radial_40_9)"/>
<defs>
<radialGradient id="paint0_radial_40_9" cx="0" cy="0" r="1" gradientTransform="matrix(-401.219 745.632 -746.268 -400.877 825.447 360.836)" gradientUnits="userSpaceOnUse">
<stop stop-color="#E6C06D"/>
<stop offset="1" stop-color="#EE2E31"/>
</radialGradient>
<radialGradient id="paint1_radial_40_9" cx="0" cy="0" r="1" gradientTransform="matrix(-401.219 745.632 -746.268 -400.877 825.447 360.836)" gradientUnits="userSpaceOnUse">
<stop stop-color="#E6C06D"/>
<stop offset="1" stop-color="#EE2E31"/>
</radialGradient>
<radialGradient id="paint2_radial_40_9" cx="0" cy="0" r="1" gradientTransform="matrix(-401.219 745.632 -746.268 -400.877 825.447 360.836)" gradientUnits="userSpaceOnUse">
<stop stop-color="#E6C06D"/>
<stop offset="1" stop-color="#EE2E31"/>
</radialGradient>
<radialGradient id="paint3_radial_40_9" cx="0" cy="0" r="1" gradientTransform="matrix(-401.219 745.632 -746.268 -400.877 825.447 360.836)" gradientUnits="userSpaceOnUse">
<stop stop-color="#E6C06D"/>
<stop offset="1" stop-color="#EE2E31"/>
</radialGradient>
<radialGradient id="paint4_radial_40_9" cx="0" cy="0" r="1" gradientTransform="matrix(-401.219 745.632 -746.268 -400.877 825.447 360.836)" gradientUnits="userSpaceOnUse">
<stop stop-color="#E6C06D"/>
<stop offset="1" stop-color="#EE2E31"/>
</radialGradient>
<radialGradient id="paint5_radial_40_9" cx="0" cy="0" r="1" gradientTransform="matrix(-401.219 745.632 -746.268 -400.877 825.447 360.836)" gradientUnits="userSpaceOnUse">
<stop stop-color="#E6C06D"/>
<stop offset="1" stop-color="#EE2E31"/>
</radialGradient>
<radialGradient id="paint6_radial_40_9" cx="0" cy="0" r="1" gradientTransform="matrix(-401.219 745.632 -746.268 -400.877 825.447 360.836)" gradientUnits="userSpaceOnUse">
<stop stop-color="#E6C06D"/>
<stop offset="1" stop-color="#EE2E31"/>
</radialGradient>
<radialGradient id="paint7_radial_40_9" cx="0" cy="0" r="1" gradientTransform="matrix(-401.219 745.632 -746.268 -400.877 825.447 360.836)" gradientUnits="userSpaceOnUse">
<stop stop-color="#E6C06D"/>
<stop offset="1" stop-color="#EE2E31"/>
</radialGradient>
</defs>
</svg>
