<svg width="1248" height="1248" viewBox="0 0 1248 1248" fill="none" xmlns="http://www.w3.org/2000/svg">
<rect width="1248" height="1248" rx="70" fill="#181818"/>
<path d="M908.119 1030.24C914.626 1029.14 944.13 1029.21 944.134 1030.32C944.134 1032.69 902.46 1059.97 887.348 1067.49C875.442 1073.42 867.561 1076.26 856.926 1078.46C830.894 1083.85 789.489 1080.31 771.51 1071.16L766.719 1068.72L781.966 1066.95C818.866 1062.66 841.907 1056.55 874.985 1042.31C894.582 1033.87 901.51 1031.35 908.119 1030.24Z" fill="white"/>
<path d="M908.119 1030.24C914.626 1029.14 944.13 1029.21 944.134 1030.32C944.134 1032.69 902.46 1059.97 887.348 1067.49C875.442 1073.42 867.561 1076.26 856.926 1078.46C830.894 1083.85 789.489 1080.31 771.51 1071.16L766.719 1068.72L781.966 1066.95C818.866 1062.66 841.907 1056.55 874.985 1042.31C894.582 1033.87 901.51 1031.35 908.119 1030.24Z" fill="url(#paint0_radial_40_9)"/>
<path d="M861.299 994.627C883.616 979.376 915.931 974.199 955.983 979.456C972.359 981.605 987.511 985.728 988.358 988.265C988.606 989.012 983.782 994.576 977.637 1000.63L966.464 1011.63L953.498 1008.92C938.114 1005.7 918.306 1005.42 905.03 1008.24C899.764 1009.36 883.65 1014.91 869.223 1020.58C825.408 1037.8 788.245 1045.97 746.771 1047.48L724.442 1048.29L713.637 1042.21C707.695 1038.87 698.783 1033.87 693.833 1031.11C688.885 1028.35 684.525 1025.59 684.144 1024.97C682.675 1022.59 706.855 1020.29 745.788 1019.11C809.318 1017.18 836.826 1011.35 861.299 994.627Z" fill="white"/>
<path d="M861.299 994.627C883.616 979.376 915.931 974.199 955.983 979.456C972.359 981.605 987.511 985.728 988.358 988.265C988.606 989.012 983.782 994.576 977.637 1000.63L966.464 1011.63L953.498 1008.92C938.114 1005.7 918.306 1005.42 905.03 1008.24C899.764 1009.36 883.65 1014.91 869.223 1020.58C825.408 1037.8 788.245 1045.97 746.771 1047.48L724.442 1048.29L713.637 1042.21C707.695 1038.87 698.783 1033.87 693.833 1031.11C688.885 1028.35 684.525 1025.59 684.144 1024.97C682.675 1022.59 706.855 1020.29 745.788 1019.11C809.318 1017.18 836.826 1011.35 861.299 994.627Z" fill="url(#paint1_radial_40_9)"/>
<path d="M732.725 963.013C733.32 962.945 733.806 963.624 733.806 964.521C733.806 968.24 721.727 993.373 719.319 994.665C717.883 995.435 713.91 996.067 710.492 996.072C704.937 996.079 692.542 998.01 663.216 1003.43L653.852 1005.16L642.483 997.89C629.08 989.316 628.463 990.154 653.973 982.239C688.83 971.423 715.004 965.034 732.725 963.013Z" fill="white"/>
<path d="M732.725 963.013C733.32 962.945 733.806 963.624 733.806 964.521C733.806 968.24 721.727 993.373 719.319 994.665C717.883 995.435 713.91 996.067 710.492 996.072C704.937 996.079 692.542 998.01 663.216 1003.43L653.852 1005.16L642.483 997.89C629.08 989.316 628.463 990.154 653.973 982.239C688.83 971.423 715.004 965.034 732.725 963.013Z" fill="url(#paint2_radial_40_9)"/>
<path d="M823.123 879.114C836.037 877.581 863.764 878.806 874.631 881.39C879.585 882.569 891.902 886.727 902.002 890.633C936.178 903.846 945.941 905.198 1007.12 905.198C1031.9 905.198 1052.14 905.684 1052.09 906.28C1052.04 906.875 1048.94 912.229 1045.2 918.179C1038.43 928.946 1038.36 928.999 1031.24 929.717C1019.14 930.937 971.429 928.653 959.489 926.281C953.275 925.046 942.579 921.452 935.719 918.292C920.072 911.086 909.952 908.413 890.946 906.47C873.104 904.644 850.773 906.769 840.05 911.31C833.195 914.213 832.161 915.733 834.513 919.451C835.784 921.46 839.416 921.896 883.955 925.366C904.118 926.937 915.299 929.562 930.509 936.296C947.745 943.928 985.316 949.456 1011.77 948.253C1018.15 947.963 1023.36 948.091 1023.37 948.536C1023.37 949.844 1017.42 957.506 1010.03 965.713L1003.17 973.329L987.634 968.161C964.476 960.459 948.328 957.855 924.686 958.016C893.423 958.226 879.151 961.84 838.25 979.899C820.676 987.661 799.396 992.784 776.199 994.839C765.567 995.782 756.534 996.218 756.121 995.809C754.989 994.675 769.347 963.978 771.52 962.886C772.566 962.363 779.905 961.141 787.828 960.172C795.752 959.203 812.904 956.312 825.944 953.749L849.652 949.091L845.392 946.098C836.22 939.655 816.307 935.567 793.854 935.516C782.428 935.49 781.231 935.233 781.931 932.963C785.182 922.427 792.87 892.681 792.871 890.633C792.871 884.836 800.996 881.742 823.123 879.114Z" fill="white"/>
<path d="M823.123 879.114C836.037 877.581 863.764 878.806 874.631 881.39C879.585 882.569 891.902 886.727 902.002 890.633C936.178 903.846 945.941 905.198 1007.12 905.198C1031.9 905.198 1052.14 905.684 1052.09 906.28C1052.04 906.875 1048.94 912.229 1045.2 918.179C1038.43 928.946 1038.36 928.999 1031.24 929.717C1019.14 930.937 971.429 928.653 959.489 926.281C953.275 925.046 942.579 921.452 935.719 918.292C920.072 911.086 909.952 908.413 890.946 906.47C873.104 904.644 850.773 906.769 840.05 911.31C833.195 914.213 832.161 915.733 834.513 919.451C835.784 921.46 839.416 921.896 883.955 925.366C904.118 926.937 915.299 929.562 930.509 936.296C947.745 943.928 985.316 949.456 1011.77 948.253C1018.15 947.963 1023.36 948.091 1023.37 948.536C1023.37 949.844 1017.42 957.506 1010.03 965.713L1003.17 973.329L987.634 968.161C964.476 960.459 948.328 957.855 924.686 958.016C893.423 958.226 879.151 961.84 838.25 979.899C820.676 987.661 799.396 992.784 776.199 994.839C765.567 995.782 756.534 996.218 756.121 995.809C754.989 994.675 769.347 963.978 771.52 962.886C772.566 962.363 779.905 961.141 787.828 960.172C795.752 959.203 812.904 956.312 825.944 953.749L849.652 949.091L845.392 946.098C836.22 939.655 816.307 935.567 793.854 935.516C782.428 935.49 781.231 935.233 781.931 932.963C785.182 922.427 792.87 892.681 792.871 890.633C792.871 884.836 800.996 881.742 823.123 879.114Z" fill="url(#paint3_radial_40_9)"/>
<path d="M750.373 893.66C757.391 891.871 761.177 892.059 761.177 894.195C761.177 897.543 753.154 924.292 750.027 931.371C747.153 937.874 746.857 938.086 739.359 939.02C710.954 942.557 686.479 949.01 650.251 962.51C620.273 973.682 608.795 975.417 598.764 970.293C595.496 968.625 592.469 966.689 592.04 965.992C591.609 965.295 595.488 964.29 600.659 963.759C613.056 962.489 624.143 958.195 632.865 951.293C652.555 935.712 668.651 928.15 693.954 922.597C723.102 916.201 735.935 910.208 743.427 899.498C745.748 896.181 745.733 896.085 743.068 897.189C739.515 898.662 728.187 898.23 725.249 896.509C723.743 895.625 726.802 895.119 734.526 894.975C740.865 894.857 747.996 894.265 750.373 893.66Z" fill="white"/>
<path d="M750.373 893.66C757.391 891.871 761.177 892.059 761.177 894.195C761.177 897.543 753.154 924.292 750.027 931.371C747.153 937.874 746.857 938.086 739.359 939.02C710.954 942.557 686.479 949.01 650.251 962.51C620.273 973.682 608.795 975.417 598.764 970.293C595.496 968.625 592.469 966.689 592.04 965.992C591.609 965.295 595.488 964.29 600.659 963.759C613.056 962.489 624.143 958.195 632.865 951.293C652.555 935.712 668.651 928.15 693.954 922.597C723.102 916.201 735.935 910.208 743.427 899.498C745.748 896.181 745.733 896.085 743.068 897.189C739.515 898.662 728.187 898.23 725.249 896.509C723.743 895.625 726.802 895.119 734.526 894.975C740.865 894.857 747.996 894.265 750.373 893.66Z" fill="url(#paint4_radial_40_9)"/>
<path d="M688.024 890.875C698.933 889.457 743.313 888.951 742.005 890.261C741.495 890.77 736.039 891.975 729.879 892.939C712.262 895.696 676.568 903.629 666.937 906.929C653.964 911.371 639.681 918.879 624.663 929.144C609.444 939.547 601.417 942.398 583.797 943.659C571.581 944.533 548.667 942.111 547.236 939.795C546.863 939.189 549.584 938.241 553.285 937.685C565.216 935.894 578.398 931.128 604.151 919.297C644.167 900.915 664.926 893.881 688.024 890.875Z" fill="white"/>
<path d="M688.024 890.875C698.933 889.457 743.313 888.951 742.005 890.261C741.495 890.77 736.039 891.975 729.879 892.939C712.262 895.696 676.568 903.629 666.937 906.929C653.964 911.371 639.681 918.879 624.663 929.144C609.444 939.547 601.417 942.398 583.797 943.659C571.581 944.533 548.667 942.111 547.236 939.795C546.863 939.189 549.584 938.241 553.285 937.685C565.216 935.894 578.398 931.128 604.151 919.297C644.167 900.915 664.926 893.881 688.024 890.875Z" fill="url(#paint5_radial_40_9)"/>
<path fill-rule="evenodd" clip-rule="evenodd" d="M364.062 239.648C449.904 186.705 555.232 160.875 655.293 168.231C724.8 173.34 783.087 188.687 841.131 217.163C928.433 259.992 1000.34 325.915 1047.83 406.65C1057.43 422.968 1075.18 458.53 1080.72 472.507C1105.6 535.367 1116.99 594.224 1117 660.007C1117.02 736.545 1102.07 805.051 1070.85 871.557L1063.96 886.234L1056.99 887.283C1046.49 888.864 968.601 886.737 951.337 884.396C934.289 882.085 926.12 879.623 912.1 872.566C899.236 866.092 883.488 861.052 867.378 858.253C850.899 855.391 818.52 855.37 806.568 858.215C801.821 859.345 797.797 860.13 797.626 859.958C797.456 859.778 798.232 853.109 799.35 845.131C802.626 821.763 804.381 786.211 804.388 743.105L804.395 702.888L810.518 710.408C820.294 722.418 833.632 741.547 841.922 755.449C849.66 768.428 859.138 788.669 859.138 792.218C859.138 795.326 861.51 794.442 865.313 789.918C870.509 783.736 874.149 767.359 873.024 755.232C871.883 742.941 865.908 722.103 860.862 712.821C858.737 708.913 852.632 701.801 847.293 697.016C841.956 692.232 837.844 688.064 838.151 687.749C838.462 687.438 846.198 689.181 855.339 691.623C864.48 694.064 873.352 696.063 875.058 696.064C879.899 696.064 907.776 704.508 918.694 709.282C924.114 711.652 928.907 713.234 929.344 712.795C930.397 711.741 924.667 696.04 919.378 685.489C911.24 669.251 895.805 658.127 873.722 652.58C861.109 649.412 850.305 649.259 837.529 652.073C832.381 653.206 827.644 654.158 827.001 654.186C824.446 654.297 828.177 650.852 835.888 645.98C840.356 643.156 848.55 636.186 854.096 630.492C864.809 619.495 885.326 604.985 899.511 598.378C904.228 596.181 908.095 593.912 908.105 593.337C908.125 591.883 900.513 588.093 890.957 584.8C866.578 576.399 840.807 582.057 822.76 599.773C813.646 608.719 804.462 621.897 799.48 633.174C797.516 637.619 795.514 641.256 795.03 641.256C794.546 641.256 792.806 638.174 791.165 634.405C786.934 624.693 776.928 611.002 768.543 603.455C760.397 596.122 745.538 588.525 734.868 586.233C722.303 583.536 702.939 585.313 690.662 590.295C680.481 594.426 676.078 597.987 681.148 597.987C685.675 597.987 701.534 605.63 711.929 612.821C717.725 616.831 727.876 625.03 734.488 631.043C741.099 637.057 750.474 644.503 755.322 647.589C760.168 650.675 763.862 653.471 763.531 653.804C763.197 654.135 759.13 653.246 754.489 651.827C748.685 650.05 741.287 649.237 730.785 649.22L715.517 649.193L701.896 655.963C685.027 664.348 675.559 673.388 668.507 687.838C662.576 699.995 658.379 713.371 660.495 713.371C661.291 713.37 667.251 711.183 673.742 708.509C690.096 701.774 702.513 698.266 725.162 693.98C735.859 691.958 746.496 689.881 748.8 689.366C752.57 688.524 752.048 689.355 743.609 697.655C733.156 707.937 731.125 711.311 724.667 729.127C720.685 740.111 720.19 743.193 720.259 756.64C720.323 769.19 720.985 773.614 724.121 782.461C728.166 793.871 730.432 797.462 731.413 794.021C731.734 792.897 733.044 788.376 734.325 783.974C739.181 767.275 778.946 704.861 784.802 704.744C786.622 704.72 784.833 758.185 782.076 786.208C779.643 810.942 777.157 829.102 773.384 849.736L771.024 862.65L734.768 862.711C704.026 862.763 695.663 863.261 679.783 865.987C651.648 870.814 646.744 872.626 599.368 895.713C555.219 917.227 534.948 923.024 506.741 922.2C489.986 921.71 491.974 923.944 483.118 895.668C468.187 848.006 456.497 790.193 450.773 735.727C449.523 723.828 447.869 708.251 447.097 701.112C443.913 671.635 442.264 594.346 444.023 557.011C445.736 520.683 446.737 509.928 448.394 510.1C449.178 510.183 482.766 552.216 488.078 559.763C490.902 563.775 491.854 562.176 493.224 551.112C493.878 545.829 494.688 541.233 495.022 540.897C496.146 539.774 500.427 557.493 500.427 563.268C500.427 570.693 506.055 578.016 509.537 575.122C511.446 573.536 512.131 573.963 514.216 578.052C516.092 581.731 529.888 602.505 533.173 606.598C533.473 606.972 534.296 606.342 535.002 605.198C536.506 602.762 536.35 602.617 541.21 610.967C546.193 619.529 571.448 654.122 572.762 654.187C574.467 654.27 576.677 643.995 578.246 628.696C581.078 601.069 575.933 574.044 562.97 548.465C551.075 524.99 538.275 511.339 511.508 493.579C502.151 487.371 494.783 482.003 495.134 481.651C495.488 481.302 500.873 482.278 507.103 483.823C513.335 485.369 521.514 486.947 525.278 487.326C531.979 488.003 532.121 487.934 532.121 483.97V479.922L538.243 483.322C543.63 486.315 562.909 494.14 564.896 494.141C565.302 494.141 565.286 491.544 564.861 488.371C564.436 485.198 564.358 482.602 564.686 482.602C565.02 482.605 568.407 484.799 572.217 487.481C580.048 492.991 587.426 497.025 589.673 497.025C590.506 497.025 591.186 495.606 591.186 493.872C591.186 490.798 591.289 490.817 595.226 494.593C597.447 496.724 600.285 498.467 601.533 498.467C602.779 498.467 606.148 499.449 609.017 500.649C613.676 502.599 614.235 502.599 614.235 500.649C614.236 497.865 615.528 497.887 618.66 500.724C620.029 501.965 626.563 504.915 633.179 507.282C639.795 509.649 648.677 513.544 652.916 515.939C657.154 518.332 660.906 520.006 661.256 519.66C662.19 518.727 656.738 499.803 653.284 491.983C635.118 450.867 600.247 426.581 553.73 422.645C534.462 421.015 504.948 427.455 490.049 436.537C486.321 438.808 483.64 439.881 484.091 438.919C484.544 437.955 492.682 430.029 502.179 421.304C511.677 412.578 522.263 402.843 525.703 399.669C529.143 396.496 533.452 392.757 535.281 391.359L538.604 388.817L535.362 386.496C533.579 385.218 532.121 383.716 532.121 383.156C532.125 382.595 538.598 379.028 546.509 375.23C559.904 368.798 563.134 365.775 556.611 365.775C551.593 365.775 552.364 363.38 558.471 359.995C561.806 358.147 568.43 353.878 573.192 350.508C582.115 344.194 607.509 331.161 610.888 331.16C614.563 331.16 612.742 328.307 607.29 325.522C584.858 314.066 550.481 311.644 524.197 319.671C503.359 326.034 479.38 342.323 467.246 358.355C456.919 372 443.898 398.649 440.541 413.008C439.013 419.547 437.397 424.9 436.951 424.907C436.504 424.908 434.36 420.351 432.186 414.78C426.013 398.956 418.594 387.671 406.08 375.067C374.409 343.168 328.611 336.966 281.095 358.15C276.54 360.18 272.858 362.239 272.907 362.727C272.959 363.213 279.372 366.691 287.159 370.456C301.141 377.216 334.991 398.853 341.361 405.102C343.169 406.875 353.727 415.139 364.823 423.467C386.69 439.881 389.968 443.272 380.849 440.051C363.819 434.035 328.9 433.67 309.059 439.299C290.17 444.659 273.068 454.998 259.791 469.088C249.547 479.957 246.631 484.194 239.638 498.375C231.437 515.001 223.635 543.391 227.793 541.48C239.238 536.222 264.774 522.29 268.096 519.491C273.181 515.207 274.252 514.937 274.252 517.939C274.252 521.009 275.193 520.709 282.703 515.24C290.831 509.321 298.727 505.183 299.815 506.272C300.257 506.715 301.473 505.951 302.516 504.575C303.625 503.114 304.432 502.803 304.459 503.831C304.484 504.797 305.477 505.215 306.666 504.759C307.854 504.302 308.827 504.647 308.827 505.525C308.827 508.471 312.613 507.161 320.898 501.352C325.421 498.179 329.653 495.583 330.301 495.583C330.947 495.583 331.168 497.206 330.789 499.189C329.987 503.39 330.844 503.54 339.07 500.634C342.434 499.447 352.639 496.8 361.751 494.755C370.861 492.708 379.212 490.691 380.307 490.27C381.402 489.85 382.272 490.063 382.239 490.742C382.204 491.423 377.829 494.689 372.515 498.003C344.39 515.54 327.356 536.519 315.488 568.236C303.42 600.488 303.2 630.772 314.765 667.458C316.474 672.878 318.361 677.314 318.957 677.314C319.556 677.311 323.07 670.394 326.767 661.943C330.465 653.489 335.305 643.915 337.524 640.669C340.227 636.711 341.792 632.261 342.27 627.162C343.11 618.213 344.151 616.681 346.864 620.395C348.684 622.888 349.63 621.539 357.909 604.615C365.787 588.515 367.198 586.432 368.768 588.582C370.384 590.794 370.884 590.441 373.554 585.202C375.804 580.784 376.535 576.629 376.535 568.236C376.535 556.867 377.493 555.736 380.265 563.836C381.128 566.357 382.424 568.347 383.146 568.259C385.96 567.916 388.683 559.247 389.435 548.244L390.221 536.722L392.962 542.835C394.468 546.197 396.141 548.948 396.678 548.948C397.219 548.946 399.662 546.152 402.11 542.738C408.796 533.418 424.075 517.994 424.075 520.565C424.075 521.793 423.152 527.222 422.023 532.629C410.541 587.59 409.791 722.53 420.501 806.4C423.885 832.902 435.674 892.195 440.825 908.629C441.573 911.016 441.096 911.237 436.837 910.479C424.553 908.288 388.747 905.257 375.095 905.25C322.412 905.227 261.279 917.134 226.13 934.264C219.869 937.317 214.511 939.812 214.219 939.813C212.458 939.813 194.771 910.159 185.016 890.85C146.799 815.199 130.087 744.639 130 658.564C129.921 579.403 146.649 509.481 182.938 437.299C224.032 355.558 286.3 287.607 364.062 239.648ZM835.076 307.276C824.741 304.058 801.126 303.346 790.908 305.943C745.571 317.471 717.663 362.225 727.156 408.18C733.605 439.402 760.211 466.684 791.43 474.086C825.273 482.111 862.546 466.7 881.936 436.665C890.9 422.779 893.938 412.457 894.733 393.179C895.344 378.39 895.033 375.395 891.876 365.534C889.927 359.454 885.978 350.263 883.101 345.111C874.1 328.998 854.014 313.175 835.076 307.276Z" fill="white"/>
<path fill-rule="evenodd" clip-rule="evenodd" d="M364.062 239.648C449.904 186.705 555.232 160.875 655.293 168.231C724.8 173.34 783.087 188.687 841.131 217.163C928.433 259.992 1000.34 325.915 1047.83 406.65C1057.43 422.968 1075.18 458.53 1080.72 472.507C1105.6 535.367 1116.99 594.224 1117 660.007C1117.02 736.545 1102.07 805.051 1070.85 871.557L1063.96 886.234L1056.99 887.283C1046.49 888.864 968.601 886.737 951.337 884.396C934.289 882.085 926.12 879.623 912.1 872.566C899.236 866.092 883.488 861.052 867.378 858.253C850.899 855.391 818.52 855.37 806.568 858.215C801.821 859.345 797.797 860.13 797.626 859.958C797.456 859.778 798.232 853.109 799.35 845.131C802.626 821.763 804.381 786.211 804.388 743.105L804.395 702.888L810.518 710.408C820.294 722.418 833.632 741.547 841.922 755.449C849.66 768.428 859.138 788.669 859.138 792.218C859.138 795.326 861.51 794.442 865.313 789.918C870.509 783.736 874.149 767.359 873.024 755.232C871.883 742.941 865.908 722.103 860.862 712.821C858.737 708.913 852.632 701.801 847.293 697.016C841.956 692.232 837.844 688.064 838.151 687.749C838.462 687.438 846.198 689.181 855.339 691.623C864.48 694.064 873.352 696.063 875.058 696.064C879.899 696.064 907.776 704.508 918.694 709.282C924.114 711.652 928.907 713.234 929.344 712.795C930.397 711.741 924.667 696.04 919.378 685.489C911.24 669.251 895.805 658.127 873.722 652.58C861.109 649.412 850.305 649.259 837.529 652.073C832.381 653.206 827.644 654.158 827.001 654.186C824.446 654.297 828.177 650.852 835.888 645.98C840.356 643.156 848.55 636.186 854.096 630.492C864.809 619.495 885.326 604.985 899.511 598.378C904.228 596.181 908.095 593.912 908.105 593.337C908.125 591.883 900.513 588.093 890.957 584.8C866.578 576.399 840.807 582.057 822.76 599.773C813.646 608.719 804.462 621.897 799.48 633.174C797.516 637.619 795.514 641.256 795.03 641.256C794.546 641.256 792.806 638.174 791.165 634.405C786.934 624.693 776.928 611.002 768.543 603.455C760.397 596.122 745.538 588.525 734.868 586.233C722.303 583.536 702.939 585.313 690.662 590.295C680.481 594.426 676.078 597.987 681.148 597.987C685.675 597.987 701.534 605.63 711.929 612.821C717.725 616.831 727.876 625.03 734.488 631.043C741.099 637.057 750.474 644.503 755.322 647.589C760.168 650.675 763.862 653.471 763.531 653.804C763.197 654.135 759.13 653.246 754.489 651.827C748.685 650.05 741.287 649.237 730.785 649.22L715.517 649.193L701.896 655.963C685.027 664.348 675.559 673.388 668.507 687.838C662.576 699.995 658.379 713.371 660.495 713.371C661.291 713.37 667.251 711.183 673.742 708.509C690.096 701.774 702.513 698.266 725.162 693.98C735.859 691.958 746.496 689.881 748.8 689.366C752.57 688.524 752.048 689.355 743.609 697.655C733.156 707.937 731.125 711.311 724.667 729.127C720.685 740.111 720.19 743.193 720.259 756.64C720.323 769.19 720.985 773.614 724.121 782.461C728.166 793.871 730.432 797.462 731.413 794.021C731.734 792.897 733.044 788.376 734.325 783.974C739.181 767.275 778.946 704.861 784.802 704.744C786.622 704.72 784.833 758.185 782.076 786.208C779.643 810.942 777.157 829.102 773.384 849.736L771.024 862.65L734.768 862.711C704.026 862.763 695.663 863.261 679.783 865.987C651.648 870.814 646.744 872.626 599.368 895.713C555.219 917.227 534.948 923.024 506.741 922.2C489.986 921.71 491.974 923.944 483.118 895.668C468.187 848.006 456.497 790.193 450.773 735.727C449.523 723.828 447.869 708.251 447.097 701.112C443.913 671.635 442.264 594.346 444.023 557.011C445.736 520.683 446.737 509.928 448.394 510.1C449.178 510.183 482.766 552.216 488.078 559.763C490.902 563.775 491.854 562.176 493.224 551.112C493.878 545.829 494.688 541.233 495.022 540.897C496.146 539.774 500.427 557.493 500.427 563.268C500.427 570.693 506.055 578.016 509.537 575.122C511.446 573.536 512.131 573.963 514.216 578.052C516.092 581.731 529.888 602.505 533.173 606.598C533.473 606.972 534.296 606.342 535.002 605.198C536.506 602.762 536.35 602.617 541.21 610.967C546.193 619.529 571.448 654.122 572.762 654.187C574.467 654.27 576.677 643.995 578.246 628.696C581.078 601.069 575.933 574.044 562.97 548.465C551.075 524.99 538.275 511.339 511.508 493.579C502.151 487.371 494.783 482.003 495.134 481.651C495.488 481.302 500.873 482.278 507.103 483.823C513.335 485.369 521.514 486.947 525.278 487.326C531.979 488.003 532.121 487.934 532.121 483.97V479.922L538.243 483.322C543.63 486.315 562.909 494.14 564.896 494.141C565.302 494.141 565.286 491.544 564.861 488.371C564.436 485.198 564.358 482.602 564.686 482.602C565.02 482.605 568.407 484.799 572.217 487.481C580.048 492.991 587.426 497.025 589.673 497.025C590.506 497.025 591.186 495.606 591.186 493.872C591.186 490.798 591.289 490.817 595.226 494.593C597.447 496.724 600.285 498.467 601.533 498.467C602.779 498.467 606.148 499.449 609.017 500.649C613.676 502.599 614.235 502.599 614.235 500.649C614.236 497.865 615.528 497.887 618.66 500.724C620.029 501.965 626.563 504.915 633.179 507.282C639.795 509.649 648.677 513.544 652.916 515.939C657.154 518.332 660.906 520.006 661.256 519.66C662.19 518.727 656.738 499.803 653.284 491.983C635.118 450.867 600.247 426.581 553.73 422.645C534.462 421.015 504.948 427.455 490.049 436.537C486.321 438.808 483.64 439.881 484.091 438.919C484.544 437.955 492.682 430.029 502.179 421.304C511.677 412.578 522.263 402.843 525.703 399.669C529.143 396.496 533.452 392.757 535.281 391.359L538.604 388.817L535.362 386.496C533.579 385.218 532.121 383.716 532.121 383.156C532.125 382.595 538.598 379.028 546.509 375.23C559.904 368.798 563.134 365.775 556.611 365.775C551.593 365.775 552.364 363.38 558.471 359.995C561.806 358.147 568.43 353.878 573.192 350.508C582.115 344.194 607.509 331.161 610.888 331.16C614.563 331.16 612.742 328.307 607.29 325.522C584.858 314.066 550.481 311.644 524.197 319.671C503.359 326.034 479.38 342.323 467.246 358.355C456.919 372 443.898 398.649 440.541 413.008C439.013 419.547 437.397 424.9 436.951 424.907C436.504 424.908 434.36 420.351 432.186 414.78C426.013 398.956 418.594 387.671 406.08 375.067C374.409 343.168 328.611 336.966 281.095 358.15C276.54 360.18 272.858 362.239 272.907 362.727C272.959 363.213 279.372 366.691 287.159 370.456C301.141 377.216 334.991 398.853 341.361 405.102C343.169 406.875 353.727 415.139 364.823 423.467C386.69 439.881 389.968 443.272 380.849 440.051C363.819 434.035 328.9 433.67 309.059 439.299C290.17 444.659 273.068 454.998 259.791 469.088C249.547 479.957 246.631 484.194 239.638 498.375C231.437 515.001 223.635 543.391 227.793 541.48C239.238 536.222 264.774 522.29 268.096 519.491C273.181 515.207 274.252 514.937 274.252 517.939C274.252 521.009 275.193 520.709 282.703 515.24C290.831 509.321 298.727 505.183 299.815 506.272C300.257 506.715 301.473 505.951 302.516 504.575C303.625 503.114 304.432 502.803 304.459 503.831C304.484 504.797 305.477 505.215 306.666 504.759C307.854 504.302 308.827 504.647 308.827 505.525C308.827 508.471 312.613 507.161 320.898 501.352C325.421 498.179 329.653 495.583 330.301 495.583C330.947 495.583 331.168 497.206 330.789 499.189C329.987 503.39 330.844 503.54 339.07 500.634C342.434 499.447 352.639 496.8 361.751 494.755C370.861 492.708 379.212 490.691 380.307 490.27C381.402 489.85 382.272 490.063 382.239 490.742C382.204 491.423 377.829 494.689 372.515 498.003C344.39 515.54 327.356 536.519 315.488 568.236C303.42 600.488 303.2 630.772 314.765 667.458C316.474 672.878 318.361 677.314 318.957 677.314C319.556 677.311 323.07 670.394 326.767 661.943C330.465 653.489 335.305 643.915 337.524 640.669C340.227 636.711 341.792 632.261 342.27 627.162C343.11 618.213 344.151 616.681 346.864 620.395C348.684 622.888 349.63 621.539 357.909 604.615C365.787 588.515 367.198 586.432 368.768 588.582C370.384 590.794 370.884 590.441 373.554 585.202C375.804 580.784 376.535 576.629 376.535 568.236C376.535 556.867 377.493 555.736 380.265 563.836C381.128 566.357 382.424 568.347 383.146 568.259C385.96 567.916 388.683 559.247 389.435 548.244L390.221 536.722L392.962 542.835C394.468 546.197 396.141 548.948 396.678 548.948C397.219 548.946 399.662 546.152 402.11 542.738C408.796 533.418 424.075 517.994 424.075 520.565C424.075 521.793 423.152 527.222 422.023 532.629C410.541 587.59 409.791 722.53 420.501 806.4C423.885 832.902 435.674 892.195 440.825 908.629C441.573 911.016 441.096 911.237 436.837 910.479C424.553 908.288 388.747 905.257 375.095 905.25C322.412 905.227 261.279 917.134 226.13 934.264C219.869 937.317 214.511 939.812 214.219 939.813C212.458 939.813 194.771 910.159 185.016 890.85C146.799 815.199 130.087 744.639 130 658.564C129.921 579.403 146.649 509.481 182.938 437.299C224.032 355.558 286.3 287.607 364.062 239.648ZM835.076 307.276C824.741 304.058 801.126 303.346 790.908 305.943C745.571 317.471 717.663 362.225 727.156 408.18C733.605 439.402 760.211 466.684 791.43 474.086C825.273 482.111 862.546 466.7 881.936 436.665C890.9 422.779 893.938 412.457 894.733 393.179C895.344 378.39 895.033 375.395 891.876 365.534C889.927 359.454 885.978 350.263 883.101 345.111C874.1 328.998 854.014 313.175 835.076 307.276Z" fill="url(#paint6_radial_40_9)"/>
<path d="M521.401 393.179C523.428 393.179 524.724 393.768 524.28 394.486C523.836 395.204 522.177 395.454 520.595 395.038C516.63 394.001 516.987 393.179 521.401 393.179Z" fill="white"/>
<path d="M521.401 393.179C523.428 393.179 524.724 393.768 524.28 394.486C523.836 395.204 522.177 395.454 520.595 395.038C516.63 394.001 516.987 393.179 521.401 393.179Z" fill="url(#paint7_radial_40_9)"/>
<defs>
<radialGradient id="paint0_radial_40_9" cx="0" cy="0" r="1" gradientTransform="matrix(-401.219 745.632 -746.268 -400.877 825.447 396.836)" gradientUnits="userSpaceOnUse">
<stop stop-color="#E6C06D"/>
<stop offset="1" stop-color="#EE2E31"/>
</radialGradient>
<radialGradient id="paint1_radial_40_9" cx="0" cy="0" r="1" gradientTransform="matrix(-401.219 745.632 -746.268 -400.877 825.447 396.836)" gradientUnits="userSpaceOnUse">
<stop stop-color="#E6C06D"/>
<stop offset="1" stop-color="#EE2E31"/>
</radialGradient>
<radialGradient id="paint2_radial_40_9" cx="0" cy="0" r="1" gradientTransform="matrix(-401.219 745.632 -746.268 -400.877 825.447 396.836)" gradientUnits="userSpaceOnUse">
<stop stop-color="#E6C06D"/>
<stop offset="1" stop-color="#EE2E31"/>
</radialGradient>
<radialGradient id="paint3_radial_40_9" cx="0" cy="0" r="1" gradientTransform="matrix(-401.219 745.632 -746.268 -400.877 825.447 396.836)" gradientUnits="userSpaceOnUse">
<stop stop-color="#E6C06D"/>
<stop offset="1" stop-color="#EE2E31"/>
</radialGradient>
<radialGradient id="paint4_radial_40_9" cx="0" cy="0" r="1" gradientTransform="matrix(-401.219 745.632 -746.268 -400.877 825.447 396.836)" gradientUnits="userSpaceOnUse">
<stop stop-color="#E6C06D"/>
<stop offset="1" stop-color="#EE2E31"/>
</radialGradient>
<radialGradient id="paint5_radial_40_9" cx="0" cy="0" r="1" gradientTransform="matrix(-401.219 745.632 -746.268 -400.877 825.447 396.836)" gradientUnits="userSpaceOnUse">
<stop stop-color="#E6C06D"/>
<stop offset="1" stop-color="#EE2E31"/>
</radialGradient>
<radialGradient id="paint6_radial_40_9" cx="0" cy="0" r="1" gradientTransform="matrix(-401.219 745.632 -746.268 -400.877 825.447 396.836)" gradientUnits="userSpaceOnUse">
<stop stop-color="#E6C06D"/>
<stop offset="1" stop-color="#EE2E31"/>
</radialGradient>
<radialGradient id="paint7_radial_40_9" cx="0" cy="0" r="1" gradientTransform="matrix(-401.219 745.632 -746.268 -400.877 825.447 396.836)" gradientUnits="userSpaceOnUse">
<stop stop-color="#E6C06D"/>
<stop offset="1" stop-color="#EE2E31"/>
</radialGradient>
</defs>
</svg>
